<svg xmlns="http://www.w3.org/2000/svg" viewBox="0 0 600 600"><path d="M93.22 95.103C78.1 83.876 136.631 184.175 129.146 197.5c-7.485 13.323-102.544-11.827-80.838-22.456 21.707-10.628 178.743-72.754 211.078-41.317 32.335 31.437 4.94 194.312-17.066 229.94-22.006 35.629-94.311-12.874-114.97-16.167-20.659-3.294-20.808 26.946-8.982-3.593 11.826-30.54 73.353-147.156 79.94-179.64 6.587-32.486-21.706-27.246-40.42-15.27-18.712 11.976-96.706 65.568-71.855 87.125 24.85 21.557 199.101-1.497 220.958 42.216 21.856 43.712-46.857 201.946-89.82 220.06C174.206 516.51 48.757 425.942 49.206 387.02c.45-38.923 163.324-73.503 170.659-122.156 7.335-48.653-111.527-158.533-126.647-169.76-15.12-11.228 43.413 89.071 35.928 102.395" fill="url('#ssshape-pattern10')" transform="rotate(40 311.867 307.055)" fill-opacity=".7"/><path d="M120.52-27.468c-15.12-11.228 43.412 89.071 35.927 102.395C148.962 88.25 53.903 63.1 75.61 52.472c21.707-10.629 178.743-72.755 211.078-41.318 32.335 31.438 4.94 194.312-17.066 229.94-22.006 35.63-94.311-12.874-114.97-16.167-20.659-3.294-20.808 26.946-8.982-3.593s73.353-147.156 79.94-179.64c6.587-32.486-21.706-27.246-40.419-15.27-18.713 11.976-96.707 65.569-71.856 87.126 24.85 21.556 199.101-1.497 220.958 42.215 21.856 43.713-46.857 201.946-89.82 220.06-42.965 18.114-168.414-72.455-167.965-111.377.45-38.922 163.324-73.503 170.659-122.156C254.501 93.64 135.639-16.24 120.519-27.468c-15.12-11.228 43.413 89.071 35.928 102.395" fill-opacity=".68" fill="url('#ssshape-pattern1')" transform="rotate(40 232.711 449.81)"/><defs><pattern id="ssshape-pattern1" width="70" height="70" viewBox="0 0 40 40" patternUnits="userSpaceOnUse"><rect width="100%" height="100%" fill="hsl(205, 69%, 60%)"/><circle cx="20" cy="20" r="10" fill="hsl(340, 45%, 25%)" fill-opacity=".5"/><circle cx="26" cy="20" r="9" fill="hsl(340, 45%, 25%)"/><circle cx="-14" cy="20" r="9" fill="hsl(340, 45%, 25%)"/></pattern><pattern id="ssshape-pattern10" width="41" height="41" viewBox="0 0 40 40" patternUnits="userSpaceOnUse"><rect width="100%" height="100%" fill="hsl(205, 69%, 60%)"/><path d="M-10 30h60v9h-60zm0-40h60v9h-60" fill="hsl(340, 45%, 25%)"/><path d="M-10 18h60v14h-60zm0-40h60v14h-60z" fill="hsl(340, 45%, 25%)" fill-opacity=".5"/></pattern></defs></svg>