<svg xmlns="http://www.w3.org/2000/svg" style="display:block;overflow:hidden" width="2400" height="800"><path d="m74.51 61.903 2.311 10.764q2.31 10.764 5.637 28.282 3.327 17.518 5.2 43.956 1.871 26.437 1.252 44.691-.618 18.254-2.186 36.668-1.568 18.414-2.846 36.034-1.279 17.619-1.758 39.1-.48 21.48-.486 39.024-.005 17.543.464 40.341.469 22.798 1.026 40.135.558 17.338 1.566 36.426 1.009 19.088 1.91 36.01.9 16.923 1.133 39.087.233 22.165.25 45.365.018 23.2-1.152 52.046t-1.075 47.98q.094 19.134 2.059 39.395 1.964 20.262-17.442 48.427t-26.031 27.754q-6.625-.412-12.772-2.917t-11.172-6.842q-5.025-4.337-8.403-10.051-3.377-5.715-4.753-12.208-1.376-6.494-.606-13.087.77-6.593 3.604-12.595 2.835-6.002 7.438-10.785t10.492-7.845q5.889-3.063 12.447-4.085 6.559-1.022 13.1.104 6.542 1.126 12.382 4.281 5.84 3.156 10.366 8.011 4.526 4.855 7.265 10.902 2.74 6.046 3.404 12.65.665 6.605-.813 13.076-1.479 6.471-4.946 12.131-3.468 5.66-8.561 9.917-5.094 4.256-11.28 6.664-6.185 2.407-12.816 2.713-6.631.306-13.012-1.52-6.382-1.828-11.846-5.597-5.464-3.77-9.438-9.086-3.974-5.316-6.043-11.624-2.068-6.307-2.015-12.944.054-6.638 2.224-12.911 2.17-6.273 6.23-11.525 4.06-5.251 9.584-8.932 5.524-3.68 11.934-5.404l6.404-1.723q-.006 0-17.16 17.73-17.156 17.73-18.333.381-1.178-17.348-.8-35.736.377-18.388.332-41.021-.044-22.634-.216-45.384t-.138-45.397q.034-22.648.26-41.555.225-18.907-.08-37.02-.305-18.113-1.132-39.568-.827-21.454-1.079-45.367-.252-23.913-.115-41.83.137-17.916 1.054-41.114.918-23.198 2.019-40.472 1.1-17.274 3.436-33.917 2.336-16.644 4.444-33.817 2.109-17.173 2.166-38.893.058-21.72-3.163-46.92-3.221-25.201-5.228-36.026-2.008-10.825-2.325-14.962-.317-4.137.365-8.23.682-4.093 2.323-7.904 1.642-3.811 4.148-7.119 2.506-3.307 5.731-5.918 3.225-2.612 6.98-4.375 3.757-1.764 7.826-2.578 4.069-.813 8.214-.63 4.146.184 8.127 1.355 3.98 1.17 7.566 3.26 3.585 2.09 6.566 4.976 2.98 2.887 5.184 6.403 2.204 3.516 3.502 7.457l1.297 3.94Z" fill="hsl(0, 0%, 100%)"/><path d="m58.277 40.788 14.806-.285q14.805-.286 42.007 1.214 27.202 1.5 47.697 3.439 20.495 1.94 41.137 4.625t36.827 5.621q16.186 2.936 32.491 7.02 16.305 4.085 34.845 10.258 18.54 6.172 35.232 9.776 16.693 3.604 25.45 3.945 8.759.341 13.507 1.058 4.748.716 9.187 2.548 4.44 1.832 8.31 4.673 3.872 2.841 6.951 6.526 3.08 3.685 5.187 8 2.108 4.315 3.122 9.009 1.013 4.694.874 9.494-.139 4.8-1.422 9.428-1.284 4.627-3.638 8.813-2.354 4.185-5.641 7.686-3.287 3.5-7.317 6.113-4.03 2.612-8.567 4.184t-9.32 2.012q-4.781.44 13.41-11.18 18.193-11.62 15.231 10.257-2.961 21.876-6.809 52.332-3.848 30.455-6.548 57.5-2.7 27.043-4.62 43.865-1.922 16.823-4.438 44.19-2.516 27.367-4.839 57.405-2.322 30.037-2.6 50.893-.279 20.856.115 40.43.393 19.574 1.06 45.1.666 25.524 1.1 43.882.435 18.357 1.661 46.504 1.227 28.147 2.713 47.441 1.486 19.295-2.333 40.886-3.819 21.59-26.416 28.796-22.597 7.205-27.929 4.594-5.332-2.611-9.55-6.789-4.22-4.177-6.884-9.483-2.664-5.305-3.495-11.184-.83-5.879.26-11.715 1.09-5.836 3.986-11.018 2.897-5.183 7.297-9.17 4.4-3.986 9.842-6.358 5.442-2.373 11.357-2.884 5.915-.51 11.683.894 5.769 1.405 10.787 4.578 5.018 3.173 8.76 7.782 3.742 4.61 5.816 10.172 2.075 5.563 2.264 11.497.19 5.934-1.526 11.618-1.715 5.684-5.155 10.523-3.44 4.838-8.246 8.325-4.805 3.487-10.472 5.257-5.667 1.77-11.603 1.637-5.935-.132-11.518-2.153-5.583-2.02-10.228-5.718t-7.866-8.685q-3.221-4.987-4.681-10.742-1.46-5.754-1.007-11.674.454-5.92 2.774-11.385t6.264-9.902q3.944-4.438 9.099-7.385 5.154-2.946 10.98-4.092 5.825-1.146 11.711-.372 5.887.774 5.881.772-.005-.001-19.813 8.193-19.808 8.195-20.81-11.51-1-19.706-2.36-47.574-1.361-27.868-2.728-46.342-1.366-18.474-2.275-44.395-.909-25.92-.955-47.17-.046-21.25.657-43.545.703-22.294 2.36-53.575 1.659-31.281 3.68-58.762 2.02-27.482 3.082-44.393 1.063-16.912 2.951-44.11 1.89-27.198 2.87-44.308.98-17.11 4.17-47.892 3.19-30.783 7.37-46.79 4.18-16.007 24.108-29.139 19.927-13.132 24.675-12.416 4.749.716 9.188 2.548 4.439 1.831 8.31 4.672 3.872 2.84 6.952 6.525 3.08 3.685 5.187 8 2.109 4.314 3.123 9.008 1.014 4.694.876 9.494-.139 4.8-1.422 9.428-1.284 4.627-3.637 8.813-2.354 4.186-5.64 7.687-3.287 3.5-7.317 6.114-4.029 2.612-8.566 4.185-4.538 1.572-9.32 2.013-4.781.44-8.193.21-3.412-.232-22.412-3.51-19-3.279-37.84-9.515-18.84-6.236-37.16-12.899-18.322-6.663-39.478-11.81-21.155-5.146-40.977-8.26-19.822-3.115-38.856-5.537-19.033-2.423-42.407-4.159-23.374-1.735-38.176-1.403-14.801.33-18.916-.082-4.115-.413-8.012-1.799-3.896-1.385-7.348-3.663-3.452-2.278-6.258-5.316t-4.804-6.66q-1.998-3.62-3.07-7.615-1.074-3.994-1.16-8.129-.086-4.134.82-8.17.907-4.035 2.752-7.736 1.846-3.701 4.523-6.853 2.678-3.152 6.032-5.571 3.354-2.42 7.19-3.966 3.836-1.547 7.93-2.13l4.092-.584ZM524.766 107.777l.217 17.58q.217 17.581.76 43.6.542 26.018 1.712 57.597 1.17 31.58 1.618 48.99.449 17.41 2.251 45.872 1.803 28.461 2.839 48.753 1.035 20.293 2.938 57.113 1.904 36.82 2.863 59.492.96 22.673 2.951 58.475 1.992 35.803 2.609 58.695.616 22.891 1.341 45.528.726 22.637 1.216 42.468.49 19.831 1.544 40.363t-3.457 38.906q-4.511 18.374-23.994 22.522-19.484 4.147-25.347 1.306-5.863-2.84-9.18-6.797-3.318-3.957-5.198-8.765-1.88-4.81-2.127-9.966-.246-5.158 1.167-10.124t4.338-9.22q2.925-4.255 7.056-7.354 4.13-3.098 9.034-4.715 4.903-1.617 10.066-1.583 5.163.033 10.045 1.713 4.883 1.68 8.973 4.832 4.09 3.151 6.96 7.443 2.87 4.293 4.218 9.277 1.349 4.983 1.036 10.137-.313 5.154-2.256 9.938-1.942 4.784-5.31 8.697-3.368 3.913-7.81 6.546-4.441 2.633-9.491 3.71t-10.179.485q-5.13-.592-9.8-2.79-4.672-2.2-8.397-5.775-3.725-3.575-6.114-8.153-2.388-4.578-3.19-9.678-.801-5.1.068-10.19t3.317-9.636q2.449-4.545 6.221-8.071 3.772-3.526 8.472-5.663 4.7-2.136 9.837-2.66t10.172.62q5.035 1.143 9.441 3.834 4.406 2.692 4.403 2.688-.004-.003-2.958-.45t-21.495 4.794q-18.542 5.24-18.035-14.903.507-20.144.095-39.29-.413-19.147-1.812-41.778-1.4-22.632-2.88-45.299-1.481-22.667-3.398-58.07-1.917-35.402-3.924-58.068-2.006-22.665-4.548-59.237-2.542-36.572-4.34-56.801t-3.398-49.953q-1.599-29.723-2.26-47.05-.662-17.326-1.935-49.863-1.272-32.537-1.103-58.159.169-25.621-.231-43.199t.002-21.462q.403-3.885 1.724-7.56 1.32-3.676 3.482-6.928 2.162-3.253 5.04-5.894 2.877-2.64 6.303-4.515 3.426-1.876 7.201-2.877 3.775-1 7.68-1.069 3.905-.068 7.713.8 3.807.868 7.297 2.623 3.49 1.754 6.457 4.292 2.968 2.539 5.243 5.714 2.274 3.175 3.722 6.802 1.449 3.626 1.987 7.495l.538 3.866Z" fill="hsl(0, 0%, 100%)"/><path d="m447.172 91.413 3.376-13.58q3.375-13.582 10.023-30.99 6.649-17.41 21.87-32.482Q497.665-.71 520.213-6.408q22.548-5.697 43.983-1.965t39.417 8q17.981 4.27 42.262 11.65 24.281 7.381 43.25 19.022 18.97 11.64 37.92 28.704 18.951 17.063 29.104 30.585 10.153 13.523 17.687 28.78 7.535 15.26 14.049 38.476 6.513 23.217 7.408 43.402.895 20.185-3.838 40.597-4.733 20.412-14.94 36.725-10.207 16.313-24.606 26.487-14.4 10.175-33.354 17.504-18.955 7.33-35.927 12.533-16.972 5.204-39.712 9.563-22.74 4.359-46.4 2.157-23.661-2.202-40.682-11.651-17.022-9.45-21.708-14.418t-7.54-11.172q-2.856-6.204-3.58-12.995-.724-6.791.759-13.458 1.482-6.666 5.015-12.51 3.534-5.845 8.748-10.255 5.215-4.41 11.565-6.925 6.35-2.514 13.17-2.869 6.82-.355 13.397 1.486 6.576 1.842 12.22 5.687 5.645 3.845 9.766 9.29 4.12 5.447 6.287 11.923 2.167 6.477 2.152 13.307-.016 6.829-2.21 13.296-2.196 6.467-6.34 11.895-4.146 5.427-9.807 9.247-5.661 3.82-12.246 5.633-6.585 1.812-13.403 1.427-6.819-.386-13.157-2.928-6.34-2.542-11.534-6.975-5.195-4.434-8.703-10.293-3.507-5.86-4.96-12.534-1.453-6.673-.699-13.46.754-6.788 3.637-12.98 2.882-6.191 7.59-11.138 4.708-4.948 10.75-8.132 6.04-3.185 12.783-4.274 6.742-1.09 13.479.032 6.737 1.12 12.763 4.334l6.021 3.21q-.005-.005 15.463 3.112t33.456-1.263q17.989-4.381 36.076-10.834 18.088-6.454 28.95-18.907 10.862-12.453 10.327-28.733-.535-16.281-7.547-35.396-7.011-19.116-17.003-32.172-9.992-13.056-24.091-24.771-14.1-11.715-29.97-18.853-15.87-7.138-32.362-11.419-16.49-4.28-35.306-10.094-18.815-5.814-33.033 3.45T517.38 94.554q-3.41 13.559-4.894 17.434-1.484 3.876-3.853 7.283-2.369 3.407-5.484 6.149-3.115 2.741-6.796 4.658-3.681 1.916-7.714 2.895-4.032.98-8.182.966-4.15-.014-8.176-1.02-4.026-1.007-7.694-2.948t-6.765-4.703q-3.097-2.763-5.442-6.186-2.346-3.423-3.805-7.308-1.458-3.886-1.944-8.007-.486-4.121.028-8.239l.514-4.116ZM933.163 79.465l-5.832 12.965q-5.832 12.965-14.3 36.357-8.47 23.392-13.195 42.103-4.726 18.712-7.756 40.355-3.03 21.644-4.763 43.266t-3.103 44.621q-1.369 23-1.35 41.002.018 18.002-.018 43.811-.037 25.81-.112 45.807-.074 19.998-.489 41.658-.414 21.66-.81 40.434-.396 18.775-1.366 43.683-.97 24.908-1.954 45.897-.984 20.989-1.243 41.18-.26 20.191.006 41.379.265 21.188 16.858 19.681 16.593-1.506 28.719-19.645 12.126-18.139 24.5-40.307 12.373-22.168 22.028-41.932 9.654-19.763 16.996-40.924 7.342-21.16 13.132-45.938 5.79-24.778 11.458-54.655 5.667-29.877 8.184-46.033 2.517-16.156 5.754-43.41 3.237-27.255 5.125-44.512 1.888-17.256 4.254-45.383 2.366-28.126 4.292-54.41 1.925-26.283 2.654-50.217.728-23.934-3.225-42.975-3.954-19.041-18.464-29.172-14.51-10.13-32.445-12.62-17.936-2.49-22.514-.806-4.578 1.683-10.857 2.836-6.28 1.153-12.599.24t-12.015-3.796q-5.697-2.883-10.175-7.434-4.477-4.55-7.268-10.293-2.79-5.742-3.6-12.075-.811-6.333.443-12.593t4.44-11.792q3.188-5.532 7.975-9.757 4.787-4.224 10.672-6.7 5.885-2.475 12.253-2.94 6.367-.467 12.55 1.124 6.183 1.592 11.534 5.074 5.351 3.482 9.31 8.491 3.96 5.009 6.112 11.02 2.152 6.01 2.273 12.394.12 6.383-1.804 12.47-1.924 6.088-5.691 11.243-3.767 5.154-8.983 8.836-5.216 3.682-11.335 5.506-6.118 1.823-12.499 1.598-6.38-.226-12.354-2.477-5.975-2.251-10.918-6.292t-8.336-9.45q-3.394-5.407-4.884-11.615-1.489-6.208-.918-12.567.571-6.36 3.143-12.203 2.571-5.844 6.874-10.56 4.303-4.717 9.887-7.813 5.584-3.095 5.578-3.093l4.712-1.515q4.717-1.516 23.247-3.471t40.378 2.427q21.847 4.381 41.884 14.74 20.037 10.36 35.618 27.365 15.58 17.006 22.169 34.73 6.588 17.723 8.608 39.637 2.02 21.914.885 47.641-1.136 25.727-3.216 52.415t-4.387 55.006q-2.307 28.318-3.628 45.979-1.322 17.661-4.453 46.22-3.13 28.557-5.17 45.258-2.04 16.701-4.334 33.65-2.294 16.949-7.523 44.106-5.228 27.158-8.821 43.442-3.594 16.284-12.518 42.616-8.924 26.332-19.234 47.96-10.31 21.63-22.834 45.671-12.525 24.042-20.91 38.603-8.387 14.56-18.238 27.591-9.851 13.03-29.718 25.817-19.866 12.787-41.052 13.253-21.186.466-40.953-6.907-19.767-7.373-37.8-21.802-18.034-14.43-21.569-33.949t-3.14-41.082q.394-21.563.77-42.987.376-21.424 1.453-42.155 1.078-20.731 1.794-44.786t1.37-42.775q.654-18.72 1.188-40.132.533-21.411.84-42.234.306-20.823.996-45.887.69-25.065 1.25-44.404.558-19.338 2.18-43.427 1.623-24.088 3.818-47.25 2.195-23.162 6.313-48.918 4.118-25.757 10.28-47.072 6.162-21.315 16.14-47.753 9.979-26.438 15.866-39.38 5.887-12.94 8.017-16.448 2.129-3.507 5.036-6.402 2.906-2.896 6.422-5.012 3.515-2.115 7.434-3.328 3.92-1.213 8.016-1.453t8.13.508q4.034.747 7.772 2.438 3.738 1.692 6.963 4.228 3.224 2.537 5.748 5.772 2.524 3.235 4.2 6.98 1.677 3.744 2.408 7.781.732 4.037.476 8.132t-1.485 8.01l-1.227 3.913ZM1225.19 69.908l2.536 17.926q2.538 17.926 4.776 41.662t2.835 47.771q.596 24.035.741 50.67.146 26.635 1.082 49.482.936 22.848 1.983 48.649 1.048 25.8 2.724 54.282 1.676 28.482 3.154 56.201t2.887 55.674q1.41 27.956 2.787 49.968 1.377 22.012 2.211 44.74.834 22.728 2.052 45.138 1.218 22.41 2.324 41.82 1.105 19.41 1.807 36.743.703 17.334-5.65 34.579-6.354 17.246-29.77 21.698-23.417 4.453-28.974 1.322-5.557-3.132-9.823-7.873-4.267-4.742-6.796-10.598-2.528-5.856-3.055-12.212-.527-6.357 1.004-12.55 1.53-6.191 4.958-11.57 3.428-5.38 8.394-9.383 4.966-4.003 10.95-6.211 5.984-2.208 12.36-2.39 6.376-.18 12.476 1.683 6.1 1.864 11.286 5.578 5.186 3.715 8.914 8.89 3.728 5.176 5.608 11.27 1.88 6.096 1.716 12.472-.164 6.377-2.356 12.367-2.192 5.99-6.182 10.967-3.99 4.976-9.36 8.419-5.37 3.442-11.557 4.99-6.188 1.546-12.547 1.037-6.358-.51-12.22-3.023-5.863-2.513-10.616-6.767-4.753-4.253-7.9-9.802-3.145-5.549-4.355-11.812-1.21-6.262-.356-12.584.853-6.32 3.68-12.038 2.828-5.718 7.333-10.234 4.504-4.516 10.215-7.356 5.711-2.841 12.03-3.71 6.32-.868 12.585.327l6.26 1.192q-.005-.002-10.223.788t-22.814 15.329q-12.595 14.539-12.094-1.735.501-16.274.495-35.932-.006-19.658-.225-41.477-.22-21.819-.677-44.307-.456-22.488-1.362-44.549-.906-22.06-2.402-50.288-1.495-28.228-2.953-55.014-1.459-26.785-3.403-55.891-1.945-29.107-2.929-55.345-.984-26.24-1.563-50.237-.58-23.997-.544-50.367.036-26.37.025-48.976-.012-22.605-1.135-42.972-1.124-20.367-4.138-38.216-3.014-17.85-3.149-21.922-.135-4.072.709-8.058.843-3.986 2.616-7.655 1.774-3.668 4.373-6.806 2.6-3.137 5.874-5.561 3.275-2.425 7.035-3.995 3.76-1.57 7.786-2.194 4.027-.625 8.085-.268 4.06.358 7.915 1.676 3.855 1.318 7.283 3.52 3.428 2.203 6.229 5.162t4.813 6.502q2.011 3.543 3.116 7.465l1.105 3.92Z" fill="hsl(0, 0%, 100%)"/><path d="m1184.914 28.177 11.082-1.692q11.082-1.69 31.13-3.487 20.048-1.797 37.239.12 17.19 1.917 33.431 7.23 16.24 5.313-5.568 13.933-21.81 8.62-6.39-2.685 15.421-11.304 18.008-11.635 2.586-.332 8.771-.98 6.185-.648 12.254.713 6.068 1.36 11.384 4.587 5.316 3.228 9.323 7.983 4.008 4.756 6.287 10.542 2.279 5.787 2.59 11.998.313 6.21-1.375 12.196t-5.198 11.12q-3.51 5.133-8.476 8.877-4.966 3.743-10.868 5.705-5.901 1.962-12.12 1.937-6.219-.025-12.104-2.034-5.885-2.01-10.821-5.793-4.936-3.784-8.405-8.945-3.469-5.162-5.108-11.16-1.64-6-1.278-12.208.362-6.208 2.688-11.976 2.325-5.768 6.37-10.491 4.046-4.724 9.388-7.908t11.42-4.496q6.08-1.312 12.26-.614 6.18.698 11.812 3.332 5.634 2.635 10.13 6.93 4.498 4.296 7.388 9.803 2.89 5.506 3.87 11.647.981 6.141-.05 12.274-1.032 6.133-3.968 11.615t-7.469 9.74q-4.533 4.258-10.188 6.845l-5.65 2.586q.006-.001 5.556-8.038 5.55-8.036-14.235 2.18-19.784 10.216-41.367 3.22-21.584-6.997-40.813-7.336-19.229-.339-30.352 1.054-11.123 1.393-15.265 1.464-4.142.072-8.18-.85-4.04-.923-7.74-2.785t-6.848-4.555q-3.148-2.694-5.56-6.063-2.41-3.368-3.946-7.216-1.535-3.848-2.105-7.951-.57-4.104-.14-8.224.428-4.12 1.83-8.019 1.403-3.898 3.698-7.347 2.295-3.45 5.348-6.249 3.054-2.8 6.688-4.787 3.635-1.988 7.64-3.048l4.003-1.06ZM1514.358 82.377l-.184 12.34q-.184 12.34-1.738 38.725-1.555 26.386-2.537 46.535-.982 20.15-2.02 45.477-1.039 25.327-2.017 49.31-.979 23.984-1.848 51.468-.869 27.485-1.606 58.874-.737 31.39-1.396 48.273-.658 16.882-1.876 43.148-1.217 26.266-2.28 49.877-1.062 23.61-1.49 45.901-.43 22.291-.767 43.233-.336 20.941-1.66 47.053-1.323 26.112-2.68 46.572-1.358 20.459-3.936 38.355-2.578 17.896-12.675 1.15-10.098-16.744 9.119-19.38 19.217-2.637 40.476-.772 21.26 1.864 33.912 3.202 12.651 1.337 19.076.8 6.426-.538 12.686 1.005 6.26 1.542 11.7 5.003 5.44 3.46 9.491 8.478 4.05 5.016 6.287 11.064 2.236 6.047 2.425 12.492.188 6.445-1.691 12.613-1.88 6.167-5.63 11.412-3.75 5.245-8.98 9.017-5.228 3.773-11.388 5.678-6.16 1.906-12.605 1.744-6.446-.16-12.503-2.372-6.057-2.21-11.09-6.24-5.034-4.03-8.518-9.455-3.483-5.425-5.052-11.68-1.569-6.253-1.059-12.68.51-6.428 3.046-12.356 2.536-5.928 6.832-10.736 4.296-4.808 9.903-7.993 5.606-3.184 11.936-4.412 6.33-1.227 12.72-.37 6.39.858 12.172 3.712 5.782 2.853 10.35 7.403 4.568 4.55 7.444 10.321 2.876 5.771 3.76 12.158.882 6.387-.32 12.722-1.204 6.334-4.366 11.953-3.163 5.619-7.954 9.933-4.791 4.315-10.71 6.874l-5.911 2.558-9.01.759q-9.017.76-25.55-1.052t-32.763-3.358q-16.23-1.546-35.223-4.485-18.994-2.938-38.67-10.43-19.674-7.492-25.573-38.06-5.898-30.57-4.153-49.927 1.745-19.359 2.998-44.908 1.253-25.55 2.036-46.202.782-20.652 1.684-43.809.902-23.156 2.341-46.687 1.44-23.531 2.888-48.673 1.449-25.14 1.867-57.855.419-32.714.748-59.814.328-27.1.655-43.51.327-16.41 1.51-40.432 1.183-24.022 2.377-49.842 1.194-25.82 2.84-46.469 1.646-20.647 3.456-45.457 1.81-24.81 2.244-37.143.433-12.333 1.03-16.39.595-4.058 2.145-7.854 1.55-3.797 3.962-7.112 2.413-3.316 5.55-5.957 3.136-2.642 6.814-4.456 3.677-1.814 7.682-2.696 4.005-.881 8.104-.778 4.1.102 8.055 1.183 3.956 1.081 7.538 3.077 3.582 1.996 6.582 4.791 3 2.796 5.245 6.228 2.244 3.432 3.601 7.301 1.358 3.87 1.75 7.952l.392 4.08Z" fill="hsl(0, 0%, 100%)"/><path d="m1481.258 385.836 16.95 1.687q16.949 1.687 35.27 2.445 18.32.758 35.024.502 16.703-.256 22.382.734 5.68.99 10.744 3.743 5.066 2.752 8.987 6.977 3.922 4.225 6.288 9.482 2.367 5.256 2.932 10.993t-.732 11.354q-1.297 5.617-4.32 10.525-3.022 4.91-7.454 8.596-4.431 3.686-9.808 5.765-5.377 2.079-11.136 2.332-5.76.252-11.298-1.347-5.538-1.6-10.276-4.883-4.737-3.284-8.178-7.91-3.442-4.624-5.226-10.106-1.784-5.481-1.724-11.246.06-5.764 1.956-11.207 1.897-5.444 5.433-9.997 3.536-4.553 8.34-7.738 4.805-3.185 10.376-4.67 5.57-1.484 11.323-1.113 5.752.372 11.085 2.562 5.333 2.189 9.687 5.966 4.355 3.778 7.275 8.748 2.92 4.97 4.1 10.613 1.181 5.642.498 11.366-.683 5.724-3.158 10.93-2.475 5.207-6.483 9.35-4.008 4.143-9.129 6.79-5.12 2.647-10.819 3.52l-5.693.873-1.962-.111q-1.967-.111-18.564-1.096-16.596-.984-35.721-2.711-19.126-1.727-36.102-3.124-16.975-1.397-20.951-2.25-3.977-.854-7.633-2.635-3.656-1.78-6.78-4.384-3.124-2.603-5.534-5.88-2.41-3.275-3.966-7.032t-2.167-7.778q-.612-4.02-.243-8.07.368-4.05 1.695-7.894 1.327-3.844 3.535-7.26 2.209-3.414 5.17-6.201 2.961-2.787 6.504-4.784 3.542-1.998 7.46-3.09 3.917-1.09 7.982-1.213 4.065-.122 4.063-.123ZM1460.57 53.525l14.197-3.385q14.196-3.385 40.524-6.288 26.329-2.903 44.563-1.652 18.234 1.251 36.582 5.794 18.349 4.543-.932 25.954-19.281 21.412-19.425 15.457-.144-5.955 1.621-11.644 1.766-5.689 5.255-10.516 3.49-4.828 8.338-8.289 4.848-3.46 10.548-5.192 5.7-1.731 11.653-1.552 5.954.18 11.54 2.25 5.584 2.071 10.216 5.817 4.631 3.746 7.824 8.775 3.193 5.029 4.613 10.814 1.42 5.784.918 11.72-.502 5.935-2.872 11.4-2.37 5.465-6.362 9.886-3.992 4.422-9.186 7.338-5.194 2.915-11.048 4.02-5.853 1.104-11.753.282-5.9-.823-11.227-3.486-5.328-2.663-9.527-6.889-4.2-4.225-6.829-9.57-2.63-5.344-3.415-11.249-.786-5.904.355-11.75 1.141-5.847 4.09-11.023 2.947-5.176 7.394-9.14 4.446-3.964 9.925-6.3 5.48-2.336 11.418-2.8 5.939-.465 11.715.991t10.784 4.68q5.009 3.225 8.726 7.88 3.717 4.654 5.753 10.252 2.036 5.598 2.035 5.592-.001-.005-35.785 17.62-35.785 17.626-52.05 14.412-16.264-3.214-36.064-1.746-19.8 1.469-33.976 4.868-14.178 3.4-18.286 3.87-4.109.47-8.21-.057-4.102-.527-7.958-2.02-3.856-1.494-7.243-3.866-3.387-2.373-6.108-5.487-2.72-3.115-4.616-6.79-1.896-3.675-2.858-7.697-.962-4.021-.933-8.157.03-4.135 1.047-8.143 1.018-4.008 2.965-7.656 1.948-3.648 4.711-6.724 2.764-3.076 6.184-5.401 3.42-2.325 7.296-3.764l3.876-1.44ZM1769.365 59.106l.923 19.757q.922 19.758 2.074 46.356 1.152 26.598 1.547 53.575.394 26.976.63 58.777.237 31.8.109 50.903-.129 19.104-.266 53.45-.138 34.348-.939 56.538-.8 22.19-1.654 56.042-.853 33.853-.766 60.354.086 26.5.574 46.268.487 19.768 2.15 41.262 1.664 21.494 5.175 37.451 3.51 15.957 8.754 31.342 5.245 15.384-26.744 36.25-31.988 20.864-33.69 15.02-1.7-5.843-1.447-11.924.254-6.081 2.436-11.763 2.182-5.681 6.065-10.369 3.882-4.687 9.057-7.89 5.176-3.202 11.103-4.584 5.927-1.382 11.985-.799 6.059.583 11.614 3.07 5.555 2.487 10.025 6.617 4.47 4.13 7.387 9.472 2.917 5.341 3.976 11.335 1.059 5.993.148 12.011-.91 6.018-3.694 11.43t-7.15 9.651q-4.367 4.24-9.86 6.864-5.491 2.623-11.533 3.355-6.042.733-12.001-.502-5.96-1.235-11.213-4.309-5.253-3.073-9.25-7.663t-6.319-10.216q-2.322-5.626-2.726-11.698-.404-6.073 1.152-11.957t4.91-10.963q3.354-5.079 8.153-8.82 4.8-3.743 10.544-5.757 5.743-2.013 11.829-2.088 6.085-.074 11.876 1.799 5.791 1.872 10.68 5.496 4.89 3.624 8.367 8.62l3.474 4.99q-.002-.005-36.134 9.81-36.132 9.817-40.977-6.528-4.845-16.345-8.226-34.427-3.38-18.082-4.831-41.572-1.45-23.49-.922-42.78.528-19.292 1.235-40.077.706-20.784 1.003-37.223.296-16.44 1.3-49.848 1.003-33.409.799-55.136-.205-21.727-.505-55.882-.3-34.156-.697-52.872-.397-18.716-.826-51.02-.428-32.303-.304-58.864t-.218-51.69q-.342-25.128-1.887-44.847-1.544-19.718-1.314-23.653.23-3.935 1.395-7.7t3.197-7.142q2.033-3.378 4.814-6.17 2.782-2.793 6.15-4.838 3.37-2.046 7.13-3.226 3.761-1.18 7.695-1.426 3.934-.245 7.812.458 3.879.702 7.476 2.313 3.597 1.61 6.705 4.036 3.107 2.424 5.544 5.522 2.437 3.098 4.061 6.69 1.625 3.59 2.343 7.466l.717 3.874Z" fill="hsl(0, 0%, 100%)"/><path d="m1710.329 64.155 11.723-8.322q11.723-8.322 32.252-21.603 20.53-13.28 38.544-19.383 18.014-6.103 37.078-6.502 19.063-.398 35.065 3.301 16.002 3.7 33.46 12.026 17.459 8.326 37.944 22.425 20.485 14.1 37.562 31.102 17.078 17.003 28.24 40.492 11.163 23.49 12.333 40.848t-3.747 38.319q-4.916 20.96-14.094 41.403-9.178 20.442-19.986 35.858-10.808 15.415-26.666 26.447-15.857 11.031-34.747 20.613-18.89 9.582-35.471 16.647-16.581 7.066-33.503 10.573-16.921 3.508-39.16-2.436-22.238-5.944-29.22-11.632-6.98-5.688-11.088-11.01-4.107-5.322-6.3-11.677-2.193-6.355-2.242-13.077-.05-6.722 2.05-13.108 2.1-6.386 6.13-11.768 4.03-5.38 9.566-9.194 5.537-3.813 12-5.658 6.465-1.845 13.18-1.53 6.715.315 12.978 2.758t11.418 6.758q5.155 4.315 8.662 10.05 3.508 5.736 5 12.29 1.492 6.555.814 13.243-.68 6.688-3.458 12.81-2.779 6.121-7.367 11.035-4.588 4.913-10.505 8.104-5.916 3.192-12.542 4.327-6.626 1.135-13.268.095-6.641-1.04-12.603-4.147t-10.62-7.954q-4.657-4.848-7.523-10.929-2.866-6.08-3.64-12.758-.775-6.678.624-13.254 1.398-6.575 4.823-12.36 3.425-5.784 8.518-10.172 5.093-4.389 11.32-6.92 6.228-2.533 12.938-2.944 6.71-.412 13.2 1.341 6.49 1.753 12.08 5.487 5.59 3.733 5.586 3.729-.005-.005 3.178.057t24.115-9.671q20.932-9.732 39.17-20.134 18.239-10.401 26.989-27.286t11.38-38.957q2.63-22.07-10.076-36.842-12.707-14.771-27.954-26.165-15.247-11.394-32.956-19.808-17.709-8.414-35.167-7.7-17.458.714-35.056 11.506-17.599 10.792-29.315 19.123-11.716 8.332-15.368 10.313-3.653 1.98-7.673 3.03-4.02 1.049-8.175 1.105-4.155.057-8.202-.883-4.048-.94-7.752-2.82-3.705-1.88-6.853-4.594-3.147-2.713-5.553-6.1-2.407-3.387-3.932-7.252-1.526-3.864-2.083-7.982-.557-4.117-.112-8.248.445-4.131 1.866-8.036 1.42-3.905 3.735-7.356 2.314-3.45 5.386-6.248l3.071-2.796ZM2084.485 59.886l4.002 14.812q4.003 14.811 8.074 43.594t5.061 50.925q.99 22.142 1.246 52.62.256 30.477.53 57.698t.691 55.654q.418 28.433-.207 47.845t-1.5 39.955q-.873 20.543-2.052 41.234-1.179 20.691-2.1 40.657-.92 19.967-2.445 43.677t-2.239 49.83q-.713 26.12-2.293 53.856-1.579 27.736-3.202 47.31t-3.114 37.299q-1.49 17.724-18.174 34.003-16.683 16.278-33.05 10.577-16.368-5.7-20.817-22.309-4.45-16.608-6.232-35.988-1.783-19.38-.515-36.956 1.268-17.577 7.346-40.33 6.077-22.755 12.932-45.03 6.855-22.276 14.445-44.17 7.59-21.894 17.497-43.516 9.906-21.622 20.896-34.176 10.989-12.554 27.849-21.294t34.67-9.413q17.811-.673 36.59 6.49 18.777 7.161 33.297 16.212 14.519 9.05 29.18 21.944 14.661 12.895 28.113 29.498 13.453 16.603 23.481 32.725 10.029 16.123 15.905 41.257 5.876 25.134 2.3 51.371-3.576 26.238-14.096 51.073-10.52 24.836-25.448 43.919-14.928 19.082-31.233 23.377-16.304 4.295-37.066 1.388-20.762-2.906-39.745-6.83-18.984-3.924-42.974-8.995-23.99-5.07-36.972-9.406-12.981-4.334-18.564-7.78-5.583-3.444-9.773-8.491-4.19-5.048-6.55-11.169-2.36-6.12-2.64-12.675-.282-6.554 1.544-12.854 1.826-6.301 5.569-11.689 3.742-5.388 9.009-9.298 5.267-3.911 11.507-5.935 6.24-2.025 12.8-1.95 6.559.074 12.751 2.239 6.193 2.165 11.37 6.193 5.177 4.03 8.796 9.5 3.62 5.471 5.303 11.812 1.683 6.34 1.254 12.886-.43 6.546-2.927 12.612t-6.8 11.017q-4.304 4.951-9.963 8.27-5.66 3.317-12.082 4.654-6.422 1.337-12.935.553-6.513-.783-12.435-3.605-5.922-2.823-10.633-7.388-4.71-4.566-7.716-10.396-3.007-5.831-3.994-12.316-.987-6.486.149-12.947 1.135-6.46 4.274-12.22 3.14-5.761 7.953-10.217 4.814-4.457 10.8-7.143 5.984-2.685 12.513-3.32 6.53-.634 12.92.85l6.384 1.482 3.018 1.453q3.024 1.455 21.934 6.038 18.909 4.583 36.616 8.03 17.708 3.448 39.055-.45 21.347-3.9 27.161-20.655 5.814-16.756 2.595-36.793-3.219-20.036-17.167-38.882-13.949-18.845-28.643-31.508-14.694-12.662-33.567-16.537-18.872-3.875-26.862 11.921-7.99 15.797-14.997 35.438-7.008 19.64-13.782 41.376-6.775 21.736-12.867 44.044-6.093 22.31-15.102 42.189-9.008 19.88-26.631 12.919-17.623-6.961-16.405-26.209 1.217-19.247 3.095-46.617 1.877-27.37 3.738-53.039 1.862-25.668 2.12-49.252.257-23.584.627-43.782.37-20.198.776-40.312.406-20.113.36-40.431-.047-20.318-.176-38.997-.129-18.678-.665-47.267-.536-28.588-.674-55.22-.139-26.633-.716-57.312t-.781-50.707q-.205-20.028-2.748-42.7-2.543-22.672-6.559-37.468-4.016-14.796-4.595-18.797-.578-4.001-.183-8.025.396-4.023 1.743-7.835 1.347-3.812 3.567-7.191t5.185-6.128q2.964-2.75 6.5-4.71t7.438-3.016q3.903-1.057 7.945-1.149 4.042-.092 7.988.786 3.946.878 7.568 2.675 3.622 1.797 6.708 4.408 3.087 2.612 5.458 5.886 2.372 3.274 3.891 7.02l1.519 3.746ZM2379.788 85.639l3.899 18.532q3.898 18.532 6.479 36.493 2.58 17.961 5.387 45.966 2.806 28.006 4.192 46.397 1.386 18.39 2.37 39.153.984 20.761 2.06 57.93 1.078 37.169.209 59.993-.87 22.824-1.206 39.222-.336 16.397-1.942 36.873-1.606 20.475-3.256 40.386-1.65 19.91-2.464 36.675-.813 16.764-.713 38.988.1 22.224 1.606 40.035 1.505 17.81 4.25 37.57 2.744 19.761 5.601 36.697 2.858 16.936-10.363 51.841-13.22 34.905-19.14 35.295-5.919.39-11.652-1.132-5.733-1.52-10.68-4.793-4.948-3.272-8.592-7.952-3.644-4.681-5.602-10.28-1.959-5.6-2.027-11.53-.068-5.932 1.762-11.574 1.829-5.643 5.364-10.406 3.536-4.763 8.407-8.147 4.871-3.385 10.568-5.037 5.697-1.652 11.623-1.399 5.926.254 11.462 2.386 5.535 2.133 10.099 5.92 4.564 3.79 7.68 8.837 3.116 5.047 4.457 10.825 1.341 5.778.767 11.682-.574 5.904-3.004 11.315-2.43 5.412-6.46 9.764-4.03 4.352-9.238 7.19-5.209 2.838-11.051 3.864-5.843 1.026-11.707.132-5.864-.893-11.135-3.612-5.272-2.72-9.4-6.98-4.127-4.26-6.679-9.614-2.55-5.355-3.259-11.244-.707-5.89.502-11.697 1.21-5.807 4.21-10.923 3.001-5.117 7.479-9.008 4.477-3.89 9.963-6.148l5.48-2.256q-.006.001-13.573 7.027-13.568 7.025-15.194-11.784-1.626-18.808-3.074-40.44-1.448-21.631-1.844-42.387-.397-20.756.87-44.206 1.267-23.45 2.38-40.828 1.113-17.379 2.545-37.166 1.432-19.788 3.4-55.099 1.966-35.31 2.027-56.97.06-21.66-1.259-57.464-1.32-35.803-2.842-55.888-1.521-20.084-4.379-53.84-2.857-33.757-5.523-60.378-2.665-26.621-6.786-45.098-4.12-18.477-4.468-22.227-.348-3.75.211-7.474.56-3.724 1.995-7.206 1.434-3.482 3.66-6.52 2.226-3.037 5.115-5.453 2.888-2.417 6.271-4.072 3.383-1.655 7.063-2.452 3.68-.797 7.445-.69 3.765.106 7.394 1.111 3.63 1.005 6.913 2.848 3.284 1.844 6.03 4.42 2.747 2.577 4.798 5.736 2.05 3.158 3.285 6.716l1.235 3.556Z" fill="hsl(0, 0%, 100%)"/></svg>