<svg xmlns="http://www.w3.org/2000/svg" version="1.1" xmlns:xlink="http://www.w3.org/1999/xlink" viewBox="0 0 2400 800" style="display: block; overflow: hidden" width="2400" height="800"><defs></defs><g id="two-0" transform="matrix(1 0 0 1 0 0)" opacity="1"></g><path d="M 74.51083968880803 61.903127393964816 Q 74.51083968880803 61.903127393964816 76.82121303762196 72.6671267563256 79.13158638643588 83.4311261186864 82.45819432972762 100.94921350353538 85.78480227301935 118.46730088838436 87.65709728579331 144.90482958342795 89.52939229856727 171.34235827847152 88.91045552591456 189.5963274199657 88.29151875326183 207.85029656145983 86.72392558279849 226.26436142557188 85.15633241233515 244.67842628968393 83.87788864063785 262.2976943584516 82.59944486894054 279.91696242721935 82.11960007314832 301.3979558570197 81.6397552773561 322.87894928682016 81.63422236511366 340.4220442826743 81.62868945287121 357.9651392785284 82.09769583723148 380.76323627521214 82.56670222159175 403.5613332718959 83.12424972436536 420.89849860201537 83.68179722713896 438.2356639321349 84.69038588133478 457.3237339400341 85.6989745355306 476.4118039479333 86.59979544040198 493.33422148681586 87.50061634527334 510.2566390256984 87.73330793415651 532.421158562905 87.96599952303968 554.5856781001116 87.98335319959705 577.7859803252625 88.0007068761544 600.9862825504132 86.83131025055258 629.8320448535894 85.66191362495076 658.6778071567655 85.7561771237772 677.8119298585729 85.85044062260364 696.9460525603802 87.81475769735418 717.2074952184321 89.77907477210472 737.468937876484 70.37304096181059 765.6338859765407 50.96700715151645 793.7988340765974 44.341944809249924 793.3875612896337 37.71688246698341 792.9762885026701 31.569967074765678 790.4710884098369 25.423051682547953 787.9658883170036 20.39786690457229 783.6290560293291 15.372682126596622 779.2922237416545 11.995366135637028 773.5778267444707 8.618050144677433 767.8634297472869 7.2422088165122105 761.3697669146533 5.866367488346988 754.8761040820197 6.636051773221876 748.2830636266734 7.405736058096764 741.6900231713272 10.240359808208453 735.6878981693369 13.074983558320142 729.6857731673465 17.677760918763923 724.9029876908276 22.280538279207708 720.1202022143086 28.169557245329905 717.0575151651852 34.0585762114521 713.9948281160619 40.61725494294969 712.9729036368483 47.175933674447286 711.9509791576346 53.71757677680942 713.0768130110662 60.25921987917155 714.2026468644979 66.09891559275485 717.3583639489292 71.93861130633815 720.5140810333605 76.46494194840048 725.3692769370232 80.99127259046281 730.2244728406858 83.73033014794501 736.270807270819 86.4693877054272 742.3171417009522 87.13439212901989 748.9215618466438 87.79939655261256 755.5259819923355 86.3207217036215 761.9970033209339 84.84204685463042 768.4680246495324 81.37451038007718 774.1281295197497 77.90697390552394 779.788234389967 72.81362778963502 784.0448083277688 67.7202816737461 788.3013822655706 61.534400599367835 790.7087608560428 55.34851952498957 793.1161394465149 48.71776687352341 793.4222695157487 42.08701422205725 793.7283995849824 35.705631546460374 791.9012292339185 29.324248870863503 790.0740588828546 23.860368621792368 786.3048933295756 18.39648837272123 782.5357277762967 14.422180254577857 777.2191996491939 10.447872136434484 771.9026715220912 8.379247258303959 765.5954227194995 6.3106223801734345 759.2881739169078 6.36426631285995 752.6505750534105 6.417910245546466 746.0129761899133 8.588206455137112 739.7399856186744 10.758502664727757 733.4669950474356 14.818220565175855 728.2153965371726 18.877938465623952 722.9637980269097 24.40202452109113 719.2834353279345 29.926110576558308 715.6030726289594 36.33619151882006 713.8792806873761 42.74627246108181 712.1554887457928 42.74014921013613 712.1561053008992 42.734025959190454 712.1567218560056 25.579167430516964 729.8864295620841 8.424308901843474 747.6161372681627 7.246753970908404 730.267419462283 6.069199039973334 712.9187016564033 6.44639423620977 694.531084032659 6.823589432446205 676.1434664089147 6.779439424073978 653.5098702220807 6.73528941570175 630.8762740352468 6.563344294807074 608.1264230357323 6.391399173912397 585.3765720362178 6.425326988319526 562.7285871001242 6.4592548027266545 540.0806021640306 6.684827506589741 521.1737933693587 6.910400210452828 502.26698457468694 6.605203773428062 484.15384062741623 6.300007336403297 466.04069668014546 5.4731306061033 444.5861921682041 4.646253875803303 423.1316876562627 4.394013277940971 399.2190367665398 4.141772680078638 375.3063858768168 4.2786937251181705 357.3898501443157 4.415614770157703 339.4733144118146 5.333131627770104 316.27529364395116 6.250648485382506 293.0772728760877 7.351651710464637 275.8033368580168 8.452654935546768 258.5294008399459 10.788145423354365 241.8856150646439 13.123635911161962 225.24182928934192 15.232079035301034 208.06910572106582 17.340522159440106 190.89638215278973 17.398263650111993 169.17635034302006 17.45600514078388 147.4563185332504 14.235015258674242 122.25542400421804 11.014025376564604 97.05452947518569 9.00668927942516 86.22997502742685 6.9993531822857165 75.405420579668 6.681971751070556 71.2680612232416 6.364590319855395 67.13070186681519 7.046597804277731 63.037617551988376 7.7286052887000665 58.944533237161565 9.370363381721294 55.133614216624835 11.012121474742521 51.3226951960881 13.518211118858567 48.0154322623703 16.02430076297461 44.7081693286525 19.249067910321337 42.096780758852404 22.473835057668058 39.4853921890523 26.22985609012663 37.72165200954224 29.985877122585205 35.95791183003218 34.05485192127325 35.14432870291427 38.123826719961286 34.330745575796364 42.26926627839908 34.51460499064473 46.41470583683687 34.6984644054931 50.395677013115375 35.86908044447816 54.376648189393876 37.03969648346322 57.96177675170266 39.129032887398 61.54690531401143 41.21836929133278 64.52782342186255 44.10499373025354 67.50874152971366 46.9916181691743 69.71219808262099 50.507759895063515 71.91565463552831 54.02390162095272 73.21358463510789 57.96520231149647 74.51151463468747 61.90650300204021 74.51117716174775 61.90481519800251 Z" fill="hsl(0, 0%, 100%)"></path><path d="M 58.27675924050797 40.788339612647675 Q 58.27675924050797 40.788339612647675 73.08256029014376 40.50290120039524 87.88836133977955 40.21746278814282 115.0902235721368 41.71702925449211 142.29208580449404 43.216595720841404 162.78706419619004 45.15596635238916 183.28204258788602 47.0953369839369 203.92380000120102 49.780731777007304 224.56555741451604 52.46612657007771 240.75131276553776 55.40212515920178 256.9370681165595 58.33812374832585 273.24223946689165 62.422576735310045 289.54741081722386 66.50702972229425 308.0871409673447 72.67955337398534 326.62687111746544 78.85207702567644 343.3193387463225 82.45582118286187 360.01180637517956 86.0595653400473 368.76968793687297 86.40097579860472 377.5275694985663 86.74238625716214 382.2759625858407 87.45877611427778 387.02435567311505 88.17516597139343 391.4633116806221 90.00713783309604 395.90226768812914 91.83910969479865 399.7737942841492 94.68018927041123 403.64532088016915 97.52126884602382 406.7244047570385 101.20633245712423 409.8034886339078 104.89139606822464 411.91117329203274 109.20626764459374 414.01885795015767 113.52113922096285 415.03264465817875 118.2150382238487 416.04643136619984 122.90893722673455 415.9073987930144 127.70905402554754 415.76836621982903 132.50917082436052 414.48459494512304 137.1365224052211 413.20082367041704 141.76387398608165 410.8469265409941 145.949518457695 408.4930294115711 150.13516292930836 405.2058150391907 153.6358304383227 401.9186006668103 157.13649794733703 397.88912210524416 159.74872953365025 393.8596435436781 162.36096111996346 389.32209427624883 163.93293376104387 384.7845450088196 165.50490640212428 380.002647612146 165.94525697421346 375.2207502154724 166.38560754630268 393.41290265461805 154.7656193265649 411.6050550937637 143.1456311068271 408.6434442969935 165.02199092669997 405.68183350022326 186.89835074657282 401.8339910949235 217.3537828932199 397.98614868962375 247.80921503986696 395.2864634008633 274.85321379164554 392.5867781121028 301.8972125434241 390.66516544489286 318.71937687605714 388.74355277768285 335.54154120869026 386.22771768227256 362.90892816203325 383.7118825868623 390.27631511537624 381.38933559698506 420.3135554560746 379.0667886071078 450.350795796773 378.78846693936583 471.2068824393534 378.51014527162386 492.0629690819338 378.90364135787206 511.6370109896005 379.2971374441203 531.2110528972672 379.96349698706194 556.7362124013968 380.6298565300036 582.2613719055263 381.064515439076 600.6188380945696 381.4991743481483 618.976304283613 382.72544454381705 647.1229529920122 383.95171473948574 675.2696017004115 385.43789824511293 694.5644544853601 386.9240817507402 713.8593072703086 383.10521592461015 735.4497977036785 379.2863500984801 757.0402881370484 356.68912241548185 764.2458497905782 334.0918947324835 771.4514114441079 328.7600098628184 768.8399927568325 323.4281249931532 766.2285740695571 319.209220583327 762.0513322278193 314.99031617350084 757.8740903860817 312.32611262890504 752.5683837133962 309.66190908430923 747.2626770407107 308.8313492193445 741.3840144262783 308.00078935437966 735.505351811846 309.0908330061542 729.669230783214 310.1808766579287 723.8331097545819 313.0773959683582 718.6505737240343 315.9739152787877 713.4680376934866 320.3736439114633 709.4816995514784 324.77337254413897 705.4953614094701 330.21565774980405 703.1225918117607 335.65794295546914 700.7498222140512 341.57297603646674 700.239050763871 347.48800911746434 699.7282793136908 353.25648454879695 701.1329839167042 359.0249599801296 702.5376885197178 364.0429168614071 705.7107962331835 369.0608737426845 708.8839039466492 372.8029306638251 713.4931895553482 376.5449875849657 718.1024751640472 378.6193501985189 723.6653452480153 380.6937128120721 729.2282153319835 380.88319480482033 735.1622359249743 381.0726767975686 741.0962565179652 379.3574393548527 746.7801340974634 377.64220191213684 752.4640116769614 374.20183084698795 757.3026427599953 370.7614597818391 762.1412738430291 365.95616285294807 765.6280524779306 361.15086592405703 769.1148311128321 355.4837589883539 770.8846906561068 349.81665205265074 772.6545501993817 343.88108270227457 772.5221858896513 337.9455133518984 772.3898215799209 332.36293726467176 770.3690919953549 326.7803611774451 768.3483624107888 322.1352755433575 764.6508384723121 317.49018990926993 760.9533145338354 314.26893642039397 755.966127973858 311.04768293151795 750.9789414138805 309.5875276784672 745.2242519817214 308.12737242541647 739.4695625495623 308.58119404862896 733.549887747859 309.0350156718414 727.6302129461558 311.3552989275694 722.1653442892891 313.6755821832974 716.7004756324226 317.619392802171 712.2625863113517 321.5632034210446 707.8246969902808 326.7176233902028 704.8784351884108 331.87204335936104 701.9321733865407 337.69740354739827 700.7860134922649 343.5227637354355 699.6398535979891 349.4091473929185 700.4137988547951 355.29553105040145 701.1877441116011 355.29026127531205 701.1861538388653 355.28499150022265 701.1845635661296 335.47693951445 709.3792591185988 315.6688875286773 717.5739546710681 314.6677866818161 697.8686928769662 313.66668583495493 678.1634310828643 312.3063145291942 650.2950472713401 310.9459432234335 622.4266634598157 309.57938384338297 603.9526605338899 308.21282446333237 585.478657607964 307.30400309222136 559.55838208695 306.3951817211104 533.638106565936 306.34908063657235 512.3876891895176 306.30297955203423 491.13727181309906 307.0057999061607 468.8432807241926 307.70862026028715 446.5492896352861 309.3666697756651 415.26792283113525 311.0247192910431 383.9865560269845 313.0454365514132 356.505512040459 315.0661538117834 329.0244680539335 316.12846978643665 312.1126781745179 317.19078576108996 295.20088829510235 319.0794453889023 268.0029208262988 320.9681050167146 240.8049533574952 321.94823738560365 223.69512917137962 322.9283697544926 206.58530498526403 326.1191233947719 175.80287606305677 329.30987703505116 145.02044714084948 333.4896536409401 129.01318727219265 337.6694302468291 113.00592740353582 357.59650878640673 99.8740993589752 377.5235873259844 86.74227131441458 382.27205202850234 87.45818632864034 387.02051673102034 88.1741013428661 391.4596559135185 90.00562929980885 395.8987950960166 91.83715725675158 399.77060578063606 94.6778496654998 403.6424164652555 97.51854207424803 406.72186883308996 101.20329775853594 409.80132120092435 104.88805344282386 411.90943733566775 109.20271422915314 414.01755347041114 113.51737501548243 415.03180956326287 118.21117261622814 416.04606565611454 122.90497021697387 415.90751309530333 127.70510089504356 415.7689605344922 132.50523157311324 414.4856520013624 137.1327115079643 413.2023434682325 141.7601914428154 410.8488649150255 145.9460712832131 408.49538636181853 150.13195112361078 405.2085220726245 153.63294733655846 401.9216577834304 157.13394354950614 397.8924404651699 159.74657807061368 393.86322314690943 162.35921259172125 389.32583109943175 163.93163897986778 384.78843905195413 165.5040653680143 380.00658571424714 165.94489412764062 375.22473237654015 166.38572288726692 371.8127845052917 166.15421211677898 368.4008366340432 165.92270134629103 349.40068052661354 162.6443687772766 330.4005244191839 159.3660362082622 311.5610928825817 153.13024640993027 292.7216613459795 146.89445661159834 274.4003750036761 140.2313418519546 256.0790886613728 133.56822709231082 234.92334162704282 128.4215162479308 213.76759459271284 123.2748054035508 193.9459807787734 120.16063270849916 174.12436696483397 117.04646001344753 155.0904961712883 114.62354465650738 136.05662537774265 112.20062929956723 112.68267680734215 110.46538162607352 89.30872823694165 108.73013395257982 74.50737472648832 109.06151148881372 59.706021216035 109.39288902504764 55.59097369243905 108.97999043413316 51.4759261688431 108.56709184321869 47.57927820737043 107.18136602900321 43.682630245897755 105.79564021478774 40.23085520915237 103.51762562670152 36.77908017240697 101.2396110386153 33.97279538770546 98.20170599154996 31.16651060300395 95.16380094448462 29.1688174738859 91.54256862251094 27.171124344767847 87.92133630053728 26.0981288897588 83.92724289635126 25.025133434749755 79.93314949216524 24.939198200109324 75.79833190207985 24.853262965468893 71.66351431199446 25.759382511072022 67.62828832861902 26.66550205667515 63.59306234524359 28.511012671957538 59.891955492326176 30.356523287239924 56.190848639408756 33.03416380853042 53.03896942113667 35.711804329820914 49.887090202864584 39.0659501642137 47.46762598749422 42.4200959986065 45.04816177212386 46.25580403261283 43.501731933530586 50.09151206661915 41.95530209493731 54.18585076908258 41.371785207998855 58.280189471546 40.78826832106039 58.27847435602699 40.78830396685403 Z" fill="hsl(0, 0%, 100%)"></path><path d="M 524.7664213906609 107.77670001058452 Q 524.7664213906609 107.77670001058452 524.9832128262849 125.35756282205753 525.2000042619088 142.93842563353056 525.7425338540535 168.95688752335218 526.2850634461981 194.97534941317383 527.454755091251 226.55449137781895 528.6244467363038 258.13363334246407 529.0731073943357 275.54394518362693 529.5217680523675 292.9542570247898 531.3243999918845 321.41579277333074 533.1270319314016 349.8773285218716 534.1625784261179 370.1694624106996 535.1981249208342 390.4615962995276 537.1014974731766 427.28193013408116 539.0048700255189 464.1022639686347 539.9640430753052 486.7744281579893 540.9232161250914 509.4465923473438 542.9152390771328 545.2493013097393 544.9072620291743 581.0520102721348 545.5235379227959 603.9436598310872 546.1398138164175 626.8353093900396 546.8651773038271 649.4720669471272 547.5905407912368 672.1088245042149 548.0809424752956 691.9399199675063 548.5713441593546 711.7710154307977 549.6252127759788 732.303021155129 550.679081392603 752.8350268794604 546.1680534166023 771.2090481076158 541.6570254406015 789.5830693357711 522.1735749375833 793.7305292034353 502.69012443456523 797.8779890710995 496.827150514596 795.0371253107378 490.96417659462674 792.196261550376 487.6467951052793 788.2397605944819 484.32941361593186 784.2832596385879 482.4490530813375 779.4746045230909 480.5686925467432 774.6659494075939 480.322227211241 769.5086075924481 480.0757618757388 764.3512657773024 481.48899672501636 759.3852123119595 482.90223157429386 754.4191588466168 485.827200546574 750.1643408398093 488.7521695188541 745.9095228330017 492.8826275906223 742.8114208532049 497.0130856623905 739.7133188734082 501.9165727831976 738.0963050157264 506.8200599040046 736.4792911580447 511.9831796779072 736.5126672002275 517.1462994518098 736.5460432424104 522.028471875549 738.2263147040308 526.9106442992882 739.9065861656511 531.0007046313301 743.0578281811288 535.0907649633722 746.2090701966066 537.9604828072811 750.501346895074 540.83020065119 754.7936235935414 542.1791157911766 759.7775324716179 543.5280309311632 764.7614413496945 543.214911595992 769.9151658322214 542.9017922608208 775.0688903147483 540.9594221275395 779.8528340879539 539.0170519942583 784.6367778611594 535.6487977285575 788.5500607491506 532.2805434628567 792.4633436371416 527.8390621754882 795.0962438885392 523.3975808881195 797.7291441399369 518.3478968423076 798.8059964034014 513.2982127964957 799.882848666866 508.16902924482434 799.2909062261515 503.039845693153 798.6989637854371 498.368189507455 796.5002031703439 493.696533321757 794.3014425552506 489.97152813787244 790.7260745825954 486.2465229539879 787.1507066099402 483.8581777979754 782.5730732502655 481.46983264196285 777.9954398905908 480.66820788211874 772.8948205650323 479.8665831222746 767.7942012394739 480.73560908256303 762.7046321378505 481.60463504285144 757.615063036227 484.0533244758295 753.0694233869942 486.50201390880767 748.5237837377615 490.27398838445146 744.9980032121265 494.04596286009524 741.4722226864915 498.7462956551002 739.3354514362038 503.4466284501052 737.1986801859161 508.58319348006705 736.6746387249339 513.7197585100289 736.1505972639515 518.7547560603891 737.2941528715728 523.7897536107492 738.4377084791942 528.1960181088748 741.1291305814318 532.6022826070005 743.8205526836696 532.5986544288082 743.8174298256953 532.595026250616 743.814306967721 529.6409967711643 743.3671683279224 526.6869672917126 742.9200296881237 508.14570777143325 748.1608297576049 489.60444825115394 753.401629827086 490.11139724609717 733.2576764486003 490.6183462410404 713.1137230701145 490.20568147031145 693.9675591174328 489.79301669958244 674.821395164751 488.3935179404322 652.1895666879313 486.994019181282 629.5577382111117 485.5132824876397 606.8909967171663 484.0325457939973 584.224255223221 482.1157857566867 548.821573673745 480.1990257193761 513.4188921242688 478.19239755480396 490.75324511404335 476.1857693902319 468.08759810381787 473.6436708189637 431.51562350383307 471.1015722476955 394.94364890384827 469.30358222797065 374.714828634528 467.50559220824573 354.4860083652077 465.90636383507274 324.76243198777547 464.3071354618998 295.0388556103432 463.64545599091116 277.71250833738185 462.9837765199225 260.3861610644205 461.7112526402443 227.8491367547596 460.43872876056605 195.3121124450987 460.6076991939087 169.6903754339823 460.7766696272513 144.06863842286592 460.37664511438896 126.49100094442196 459.97662060152663 108.91336346597798 460.37931141993073 105.02868107044185 460.7820022383348 101.14399867490572 462.102685213953 97.46857846936084 463.42336818957114 93.79315826381594 465.5852851658084 90.54061584329743 467.74720214204564 87.28807342277892 470.6247024026659 84.64744670558738 473.50220266328614 82.00681998839585 476.9280457579433 80.13158232340376 480.3538888526005 78.25634465841169 484.1289646196706 77.25548494681607 487.90404038674075 76.25462523522046 491.8089412452705 76.18631349048444 495.71384210380023 76.11800174574842 499.52161503242087 76.98620824968566 503.32938796104156 77.85441475362289 506.8187250182342 79.60867930343204 510.3080620754269 81.36294385324119 513.2761628274818 83.9013085108636 516.2442635795367 86.43967316848601 518.5186218712887 89.6146080607561 520.7929801630407 92.78954295302617 522.241410183713 96.41652071483152 523.6898402043853 100.04349847663687 524.2281591331222 103.91171899004854 524.7664780618591 107.77993950346021 524.7664497262599 107.77831975702236 Z" fill="hsl(0, 0%, 100%)"></path><path d="M 447.17240070209476 91.41345117492796 Q 447.17240070209476 91.41345117492796 450.5476102071061 77.8321072697228 453.9228197121174 64.25076336451764 460.57118977142727 46.84230610777094 467.2195598307371 29.433848851024237 482.4416935478548 14.361414868487577 497.66382726497255 -0.7110191140490834 520.212007001555 -6.407935487951283 542.7601867381373 -12.104851861853483 564.1951714501955 -8.373163782063385 585.6301561622537 -4.641475702273286 603.611694780753 -0.37260912460764395 621.5932333992524 3.8962574530579985 645.8742423402189 11.277364670820287 670.1552512811854 18.658471888582575 689.1246137415869 30.299127929276874 708.0939762019884 41.939783969971174 727.044625584376 59.00300967701689 745.9952749667638 76.06623538406261 756.148037556111 89.58841645731775 766.3008001454583 103.1105975305729 773.8352293708385 118.36894097723199 781.3696585962189 133.62728442389107 787.8835429291992 156.84409106296653 794.3974272621796 180.06089770204198 795.2921833007777 200.24610719883464 796.1869393393758 220.43131669562732 791.4540944189971 240.84340489031172 786.7212494986182 261.25549308499615 776.5140181886561 277.5681169798747 766.3067868786941 293.8807408747532 751.9077110057415 304.055151038159 737.5086351327888 314.22956120156476 718.5536046560865 321.5588495175576 699.5985741793842 328.8881378335504 682.6267633507005 334.0918798619339 665.6549525220169 339.2956218903173 642.9153439055468 343.65457738384987 620.1757352890768 348.0135328773825 596.5147936011906 345.811729974478 572.8538519133044 343.6099270715735 555.8325261455998 334.160582346668 538.8112003778951 324.7112376217625 534.1249488464082 319.74328038304895 529.4386973149212 314.77532314433535 526.5840967199375 308.57106589747906 523.7294961249538 302.3668086506228 523.0054239023095 295.5758387671344 522.2813516796651 288.78486888364614 523.7636183822076 282.118202702969 525.24588508475 275.4515365222918 528.7792969974425 269.6071757533717 532.312708910135 263.76281498445155 537.5273168729886 259.3526657425558 542.7419248358424 254.94251650066005 549.0917580186235 252.4283225755815 555.4415912014047 249.91412865050293 562.2618203936829 249.55912680988 569.0820495859612 249.20412496925712 575.6585949909394 251.0454839995145 582.2351403959176 252.88684302977182 587.8794359736552 256.73177215436993 593.5237315513928 260.576701278968 597.6448180649511 266.0226354035987 601.7659045785095 271.4685695282294 603.9323031820581 277.94531791245686 606.0987017856067 284.42206629668436 606.0835899734802 291.2515116749845 606.0684781613537 298.0809570532846 603.8734381442708 304.5480546917508 601.678398127188 311.015152330217 597.5332511743716 316.442795398954 593.3881042215553 321.8704384676909 587.7268483131779 325.6903513046432 582.0655924048007 329.5102641415954 575.4809625288958 331.3225008643751 568.8963326529908 333.13473758715475 562.0777412957392 332.74955653250277 555.2591499384876 332.36437547785073 548.9205054149265 329.822105203867 542.5818608913656 327.2798349298833 537.3868209563519 322.8466518053482 532.1917810213382 318.413468680813 528.6842677274251 312.553528149112 525.1767544335119 306.69358761741097 523.7240053484655 300.02042699908725 522.2712562634192 293.3472663807635 523.0253745999325 286.55956735409876 523.7794929364459 279.77186832743405 526.6615223056181 273.58030477229875 529.5435516747901 267.3887412171635 534.2517428408869 262.44157147219437 538.9599340069838 257.4944017272252 545.0013381120731 254.3095957706464 551.0427422171624 251.1247898140676 557.7848226566657 250.0357976702401 564.5269030961689 248.9468055264126 571.2637622683337 250.0676449602611 578.0006214404984 251.18848439410962 584.026908411641 254.40180322103737 590.0531953827835 257.61512204796514 590.0481631740778 257.61127889831096 590.043130965372 257.6074357486568 605.5108518431284 260.72444003214446 620.9785727208847 263.84144431563215 638.9672046839604 259.4606877270518 656.9558366470361 255.07993113847135 675.0433163805453 248.62665575385628 693.1307961140545 242.17338036924122 703.9929197506979 229.7202433508046 714.8550433873413 217.267106332368 714.3198778053568 200.98656477030877 713.7847122233721 184.70602320824955 706.7732351304718 165.59067379658995 699.7617580375714 146.47532438493036 689.7697847966705 133.41895553165284 679.7778115557695 120.36258667837531 665.6786958165009 108.64766020015432 651.5795800772322 96.93273372193333 635.7088517799912 89.79475915191792 619.8381234827502 82.6567845819025 603.3473428819694 78.37636817135865 586.8565622811886 74.09595176081481 568.0412800606572 68.28188242843251 549.2259978401257 62.46781309605022 535.0081282180569 71.73187653507782 520.790258595988 80.9959399741054 517.3804926676497 94.55448902849497 513.9707267393114 108.11303808288454 512.4862871434175 111.988311653579 511.0018475475234 115.86358522427346 508.63310318874164 119.27098251903092 506.26435882995986 122.67837981378838 503.1489812417177 125.41986274174167 500.03360365347555 128.16134566969495 496.352658727577 130.07757911426336 492.67171380167844 131.9938125588318 488.63913823016514 132.97342494218321 484.6065626586519 133.95303732553464 480.45672992321005 133.93909352992176 476.3068971877682 133.92514973430892 472.28099576196064 132.91846017378793 468.25509433615315 131.91177061326692 464.5871098000041 129.9708441323944 460.919125263855 128.0299176515219 457.82224105094485 125.26756098856022 454.7253568380347 122.50520432559853 452.3795640043243 119.08196577958776 450.03377117061393 115.65872723357698 448.57540730581513 111.77356558965147 447.1170434410164 107.88840394572594 446.63086872147227 103.76712498117413 446.14469400192814 99.64584601662234 446.6589649251814 95.5279786585015 447.1732358484346 91.41011130038066 447.1728182752647 91.41178123765431 Z" fill="hsl(0, 0%, 100%)"></path><path d="M 933.163201754493 79.4650927854908 Q 933.163201754493 79.4650927854908 927.3308792888336 92.42996371873741 921.4985568231742 105.39483465198404 913.0301748659949 128.78703841627234 904.5617929088156 152.17924218056064 899.8357220070307 170.89047972772784 895.1096511052458 189.60171727489504 892.0796773296059 211.24527222080877 889.0497035539661 232.88882716672248 887.3166299636299 254.5110573976775 885.5835563732937 276.1332876286325 884.2142949111885 299.1322194836385 882.8450334490833 322.1311513386445 882.8636482760704 340.133754197392 882.8822631030575 358.1363570561395 882.8455017100343 383.9453340442566 882.808740317011 409.75431103237366 882.734130122162 429.7521649594944 882.6595199273129 449.7500188866151 882.2453712265849 471.40979843869354 881.8312225258568 493.069577990772 881.4349964418187 511.84427220045404 881.0387703577807 530.6189664101361 880.0692655670489 555.5270277335507 879.099760776317 580.4350890569652 878.1152490163802 601.423956104382 877.1307372564434 622.4128231517988 876.8716615555315 642.6039476716505 876.6125858546197 662.7950721915023 876.8780179507061 683.9830072698288 877.1434500467924 705.1709423481553 893.7359968019223 703.6642785905569 910.3285435570523 702.1576148329584 922.4546479008911 684.0188786507342 934.5807522447299 665.8801424685101 946.9545846752376 643.7119998354748 959.3284171057454 621.5438572024394 968.9826996518934 601.7801960423044 978.6369821980416 582.0165348821695 985.9790278806502 560.8560277619674 993.3210735632589 539.6955206417655 999.1113403816751 514.9176295655922 1004.9016072000911 490.13973848941885 1010.5689187617105 460.26269371310536 1016.2362303233299 430.3856489367918 1018.7532723498051 414.2300668527747 1021.2703143762803 398.0744847687576 1024.5072110721903 370.8197771399524 1027.7441077681 343.5650695111472 1029.6319854138753 326.3084870817385 1031.5198630596506 309.0519046523298 1033.886170908032 280.9254752336256 1036.2524787564137 252.79904581492136 1038.177743939622 226.51562755678725 1040.1030091228304 200.23220929865315 1040.8317285310013 176.29802431794792 1041.560447939172 152.36383933724267 1037.6066915029628 133.32292556401208 1033.6529350667533 114.28201179078151 1019.1429044052079 104.15140361128209 1004.6328737436623 94.02079543178269 986.6976404615164 91.5309757340583 968.7624071793705 89.0411560363339 964.1843683954138 90.72479794670889 959.6063296114571 92.40843985708388 953.3267560698612 93.56104121895167 947.0471825282652 94.71364258081947 940.7283068126267 93.80076610834143 934.409431096988 92.88788963586339 928.7128411627552 90.00511373668397 923.0162512285225 87.12233783750455 918.5383815455634 82.57148990924674 914.0605118626045 78.02064198098894 911.2701965687679 72.27819700304855 908.4798812749312 66.53575202510814 907.6692671180534 60.20294550253375 906.8586529611756 53.87013897995937 908.1126114574629 47.610017427363104 909.3665699537503 41.349895874766844 912.5538113176287 35.81789567121714 915.7410526815071 30.28589546766743 920.5278719008285 26.061218494782157 925.3146911201499 21.836541521896883 931.1999069590537 19.36151257394355 937.0851227979575 16.886483625990216 943.4525516045644 16.420238887163727 949.8199804111714 15.953994148337237 956.0029507085917 17.54534956586938 962.1859210060121 19.136704983401522 967.5370741719603 22.619045224999653 972.8882273379086 26.10138546659778 976.8472962233427 31.110108589718017 980.8063651087767 36.11883171283826 982.958834156299 42.12952308431545 985.1113032038212 48.14021445579264 985.2318083359594 54.52355310236463 985.3523134680977 60.90689174893663 983.4282377657067 66.99454042926965 981.5041620633158 73.08218910960265 977.7369567603427 78.2367693998826 973.9697514573695 83.39134969016254 968.7538439434811 87.0731756733201 963.5379364295927 90.75500165647765 957.4194335983591 92.57858518016852 951.3009307671255 94.4021687038594 944.9204414801045 94.17658009177387 938.5399521930835 93.95099147968835 932.565515362912 91.69984991906139 926.5910785327407 89.44870835843443 921.6482192726357 85.40770896490733 916.7053600125308 81.36670957138021 913.3115969918135 75.9589460481755 909.9178339710962 70.55118252497078 908.4284950739022 64.34284914047892 906.9391561767081 58.134515755987046 907.5101755787207 51.775626654405215 908.0811949807334 45.41673755282339 910.6527867998275 39.57307010167085 913.2243786189216 33.7294026505183 917.5272965128038 29.012790374509144 921.8302144066859 24.296178098499986 927.4139417360066 21.200451547997094 932.9976690653273 18.104724997494202 932.9920962866711 18.10672064705011 932.9865235080149 18.10871629660602 937.7036851809903 16.592124459018265 942.4208468539658 15.075532621430511 960.9510768211176 13.12076365731464 979.4813067882693 11.165994693198769 1001.3288254594959 15.547710543791386 1023.1763441307223 19.929426394384002 1043.2131716305116 30.288307106062465 1063.249999130301 40.64718781774093 1078.8308865262863 57.652855263987554 1094.4117739222718 74.65852271023418 1100.9999533158307 92.38220383343818 1107.5881327093894 110.10588495664219 1109.6084235694907 132.02008514474343 1111.6287144295923 153.9342853328447 1110.4928468497324 179.66109849591743 1109.3569792698727 205.38791165899013 1107.2770125070215 232.07592715052084 1105.1970457441705 258.7639426420516 1102.8901902382331 287.0818811329657 1100.5833347322955 315.39981962387986 1099.2617257740928 333.0610374918428 1097.9401168158902 350.72225535980573 1094.8091656019847 379.2803064154101 1091.6782143880794 407.8383574710145 1089.6388527340114 424.53920484273937 1087.5994910799432 441.24005221446424 1085.305030223124 458.188845371218 1083.0105693663047 475.1376385279717 1077.782212847151 502.2954544968023 1072.5538563279972 529.4532704656328 1068.9605039519734 545.7371931895641 1065.3671515759495 562.0211159134952 1056.4430514082426 588.3530425906708 1047.5189512405357 614.6849692678463 1037.2092840689852 636.3138438962717 1026.8996168974345 657.9427185246972 1014.3748205957926 681.9841883956402 1001.8500242941507 706.0256582665833 993.4641779698618 720.5866780034096 985.0783316455729 735.1476977402358 975.2270756076757 748.1782464783347 965.3758195697784 761.2087952164336 945.5093114626484 773.9954801948404 925.6428033555185 786.7821651732472 904.4569437870327 787.2479436569166 883.271084218547 787.713722140586 863.5038847228404 780.3406818607091 843.7366852271338 772.9676415808322 825.7034446873445 758.5386976286137 807.6702041475553 744.1097536763953 804.1352008968997 724.5904641665004 800.6001976462442 705.0711746566056 800.9947944552264 683.5078452454478 801.3893912642086 661.94451583429 801.7649691891667 640.5209013133648 802.1405471141247 619.0972867924396 803.2183982911916 598.3659717078782 804.2962494682586 577.6346566233168 805.012211715964 553.5799936413651 805.7281739636695 529.5253306594135 806.3820843813603 510.8051408336552 807.0359947990511 492.08495100789685 807.5696594158399 470.6733079046867 808.1033240326285 449.26166480147646 808.4097551420457 428.43889787332813 808.716186251463 407.6161309451798 809.4062010591626 382.5515228930265 810.0962158668622 357.4869148408732 810.6552090051634 338.14822646004745 811.2142021434647 318.80953807922174 812.8366545156252 294.72115838910696 814.4591068877858 270.6327786989922 816.654032327851 247.47089455039952 818.8489577679163 224.30901040180686 822.9668641045637 198.55266733530937 827.084770441211 172.7963242688119 833.2466923012778 151.48114315904147 839.4086141613444 130.16596204927103 849.3872765938897 103.72793621146087 859.3659390264351 77.28991037365071 865.2531020344086 64.34852024427528 871.140265042382 51.40713011489983 873.2695919252899 47.900090494550575 875.3989188081977 44.39305087420132 878.3056831115857 41.49752308854243 881.2124474149738 38.60199530288354 884.7277078609553 36.486267562863304 888.2429683069369 34.370539822843064 892.1624177932276 33.157578324118504 896.0818672795184 31.944616825393936 900.1777072178207 31.704918947261664 904.2735471561231 31.46522106912939 908.3077271367806 32.21271806352862 912.341907117438 32.96021505792785 916.0799604104297 34.6514623644231 919.8180137034215 36.34270967091834 923.042684475727 38.879411916593185 926.2673552480326 41.41611416226804 928.791225482855 44.65083809341742 931.3150957176775 47.885562024566795 932.9914779583855 51.63030533432946 934.6678601990936 55.37504864409212 935.3993230310928 59.412166675358634 936.1307858630919 63.44928470662516 935.8748166322187 67.54413996973516 935.6188474013455 71.63899523284516 934.390323051325 75.55359454751073 933.1617987013045 79.4681938621763 933.1625002278988 79.46664332383355 Z" fill="hsl(0, 0%, 100%)"></path><path d="M 1225.1890718122609 69.90751394982827 Q 1225.1890718122609 69.90751394982827 1227.7262956999239 87.83379601546756 1230.263519587587 105.76007808110683 1232.5019637313949 129.49624131842734 1234.7404078752027 153.23240455574788 1235.3365397437979 177.2672736330938 1235.9326716123928 201.30214271043974 1236.0780942568704 227.9369613790319 1236.223516901348 254.57178004762406 1237.159555090453 277.4193180203194 1238.095593279558 300.26685599301476 1239.1433870172173 326.06765942507565 1240.1911807548768 351.86846285713654 1241.8672261279912 380.35030529107814 1243.543271501106 408.8321477250198 1245.0209282717385 436.551042284955 1246.4985850423711 464.2699368448902 1247.9084774710755 492.22529058936834 1249.31836989978 520.1806443338465 1250.6950973763558 542.1925821885425 1252.0718248529315 564.2045200432384 1252.906150233849 586.9329602497417 1253.7404756147664 609.6614004562449 1254.9584247478604 632.0710602342139 1256.1763738809543 654.4807200121828 1257.281539321751 673.8910581625025 1258.3867047625479 693.3013963128224 1259.0891959245782 710.6344593945405 1259.7916870866086 727.9675224762585 1253.4383640729452 745.2130294208233 1247.0850410592818 762.4585363653881 1223.6686139691342 766.9112050058066 1200.2521868789863 771.363873646225 1194.6951031551012 768.2326615500803 1189.1380194312158 765.1014494539355 1184.871681283404 760.3597169104614 1180.6053431355924 755.6179843669873 1178.0764372941344 749.7621920251813 1175.5475314526761 743.9063996833754 1175.0208350267385 737.5496505472038 1174.4941386008006 731.1929014110322 1176.0247968452134 725.0007487930709 1177.555455089626 718.8085961751095 1180.983207682145 713.4293600890285 1184.4109602746635 708.0501240029475 1189.3769206140128 704.04701188694 1194.3428809533618 700.0438997709326 1200.3271116811252 697.8360385202636 1206.3113424088888 695.6281772695945 1212.687292988186 695.4467305400277 1219.0632435674836 695.2652838104609 1225.1633502895752 697.1292491224792 1231.2634570116668 698.9932144344976 1236.4490370924777 702.7074341278937 1241.6346171732885 706.42165382129 1245.3627390094975 711.5972481137067 1249.0908608457066 716.7728424061232 1250.9711890969343 722.86792520892 1252.851517348162 728.9630080117169 1252.687181150146 735.3394225464955 1252.52284495213 741.7158370812741 1250.3310503481835 747.7059710630333 1248.139255744237 753.6961050447924 1244.1494842079708 758.6727898644 1240.1597126717045 763.6494746840076 1234.7896943361627 767.0916501271336 1229.419676000621 770.5338255702596 1223.2316532030823 772.0810949593626 1217.0436304055436 773.6283643484658 1210.6854907663896 773.1187281700672 1204.3273511272355 772.6090919916688 1198.4647935450714 770.0959092881781 1192.6022359629073 767.5827265846873 1187.8490717641507 763.3291282485754 1183.095907565394 759.0755299124637 1179.9497942963683 753.5268688123627 1176.8036810273425 747.9782077122618 1175.5940175778078 741.7154301300565 1174.384354128273 735.4526525478511 1175.2377925807154 729.131472949611 1176.0912310331582 722.8102933513709 1178.9184161563217 717.0925409096612 1181.7456012794853 711.3747884679515 1186.2505260446699 706.8591133727592 1190.7554508098544 702.343438277567 1196.4664484049608 699.5026329033813 1202.1774460000674 696.6618275291954 1208.496573469331 695.7933249485932 1214.8157009385945 694.9248223679909 1221.081343967896 696.1195550304237 1227.346986997197 697.3142876928565 1227.341433278209 697.3122555828324 1227.3358795592208 697.3102234728084 1217.1176909656663 698.0999026367425 1206.8995023721118 698.8895818006766 1194.3043794509904 713.4288036898707 1181.7092565298688 727.9680255790648 1182.210162196089 711.6941466778608 1182.7110678623092 695.4202677766566 1182.7049066319826 675.7623551935599 1182.698745401656 656.104442610463 1182.4795666546388 634.2853069535781 1182.2603879076216 612.4661712966932 1181.803487310151 589.9782517763238 1181.3465867126806 567.4903322559543 1180.4406377220773 545.4293209712811 1179.534688731474 523.3683096866079 1178.0394969567496 495.1405660048101 1176.544305182025 466.91282232301234 1175.0857934604903 440.12749929633947 1173.6272817389556 413.34217626966665 1171.682651247806 384.23567369354316 1169.7380207566562 355.12917111741973 1168.754095774691 328.8905334980687 1167.770170792726 302.65189587871765 1167.190675385943 278.6543443518815 1166.6111799791602 254.65679282504536 1166.6469146556217 228.28682510686014 1166.6826493320832 201.91685738867488 1166.6715121736001 179.31125595306838 1166.6603750151173 156.70565451746185 1165.536776102437 136.33871438852663 1164.4131771897567 115.97177425959143 1161.3990399934355 98.12274447372923 1158.3849027971141 80.27371468786704 1158.2500175677083 76.20145842101819 1158.1151323383021 72.12920215416933 1158.9587520052519 68.1430045943967 1159.8023716722016 64.15680703462408 1161.5754650208269 60.48834617139236 1163.348558369452 56.819885308160636 1165.9480731310218 53.682372259202744 1168.547587892592 50.54485921024485 1171.822440147027 48.12064638138163 1175.0972924014618 45.696433552518414 1178.8571475818653 44.12641630726456 1182.6170027622688 42.556399062010705 1186.6433379088999 41.93182687642731 1190.6696730555311 41.30725469084391 1194.728477380491 41.66442772970248 1198.787281705451 42.02160076856105 1202.6426573106712 43.33976011806141 1206.4980329158914 44.657919467561776 1209.9259051900522 46.86045364437753 1213.353777464213 49.06298782119329 1216.1549183096822 52.02188543548227 1218.9560591551515 54.98078304977125 1220.9676661343797 58.52407283316778 1222.9792731136079 62.06736261656432 1224.084431534447 65.98910840037662 1225.1895899552865 69.91085418418893 1225.1893308837737 69.9091840670086 Z" fill="hsl(0, 0%, 100%)"></path><path d="M 1184.9135091199005 28.176526578174865 Q 1184.9135091199005 28.176526578174865 1195.995992070726 26.485404318705974 1207.0784750215514 24.794282059237084 1227.1264280886721 22.997755752477318 1247.174381155793 21.20122944571755 1264.364730541048 23.118317491340797 1281.5550799263028 25.035405536964042 1297.7959542684612 30.348233708621937 1314.0368286106195 35.66106188027983 1292.2275376014577 44.28062134519695 1270.4182465922959 52.90018081011406 1285.8387841326662 41.596322106353526 1301.2593216730363 30.292463402592986 1303.8457338264388 29.960801067439608 1306.4321459798416 29.62913873228623 1312.617219510761 28.980981741621054 1318.8022930416805 28.33282475095588 1324.8705410298655 29.693562940805847 1330.9387890180506 31.054301130655816 1336.2548642972765 34.281464853343635 1341.5709395765023 37.508628576031455 1345.5782476617264 42.26433293790322 1349.5855557469504 47.02003729977499 1351.864530423823 52.80635879875871 1354.1435051006958 58.59268029774242 1354.4555371189579 64.80378954545395 1354.7675691372199 71.0148987931655 1353.0799886621905 77.00049101179584 1351.3924081871612 82.9860832304262 1347.8819053400541 88.11946533464187 1344.371402492947 93.25284743885754 1339.405527848537 96.99655296726587 1334.4396532041274 100.74025849567421 1328.538335148548 102.70232049120858 1322.6370170929683 104.66438248674295 1316.4181251844352 104.63937254053684 1310.199233275902 104.61436259433074 1304.3138871388667 102.60489925435391 1298.4285410018313 100.59543591437708 1293.4929379304217 96.81191052277191 1288.5573348590121 93.02838513116674 1285.0882337976777 87.866933795188 1281.6191327363433 82.70548245920928 1279.9797494819595 76.70651049622475 1278.3403662275755 70.70753853324024 1278.7023446396315 64.49913989134927 1279.0643230516873 58.2907412494583 1281.3897638948874 52.52293690532488 1283.7152047380878 46.75513256119147 1287.7606337422926 42.03181315219889 1291.8060627464977 37.30849374320631 1297.1479224270774 34.124192058311294 1302.489782107657 30.939890373416276 1308.5687783459407 29.62800363960136 1314.6477745842246 28.316116905786444 1320.827434869365 29.0140000103865 1327.0070951545056 29.711883114986556 1332.6404074233765 32.34646751272672 1338.2737196922474 34.981051910466874 1342.7708746632482 39.27649591944101 1347.268029634249 43.57193992841515 1350.158173994782 49.078509426996575 1353.0483183553151 54.585078925577996 1354.0288532279087 60.72623463367205 1355.0093881005023 66.86739034176611 1353.9776512251597 73.00015163562766 1352.945914349817 79.13291292948921 1350.009928849739 84.61517808275926 1347.0739433496608 90.0974432360293 1342.54110768173 94.35521763998298 1338.0082720137993 98.61299204393666 1332.3531752690008 101.20048559453674 1326.6980785242022 103.78797914513683 1326.7036404372748 103.78645920018461 1326.7092023503474 103.78493925523239 1332.2588627039295 95.74847527691624 1337.8085230575116 87.71201129860009 1318.0242459857043 97.92798053745727 1298.239968913897 108.14394977631446 1276.6565057316525 101.14740691771163 1255.0730425494078 94.15086405910881 1235.8441374016236 93.81215092043757 1216.6152322538394 93.47343778176634 1205.4923410591568 94.86639307127815 1194.3694498644745 96.25934836078997 1190.2273038452215 96.33048260194607 1186.0851578259685 96.40161684310218 1182.0463585978823 95.47937255860424 1178.007559369796 94.5571282741063 1174.3068421337753 92.69510634510081 1170.6061248977544 90.83308441609533 1167.458575513434 88.13950564458281 1164.3110261291135 85.44592687307029 1161.8995803145972 82.0773421838083 1159.4881345000808 78.70875749454632 1157.9529455994095 74.86094918794706 1156.4177566987382 71.01314088134778 1155.8480499629495 66.90974375697927 1155.2783432271606 62.806346632610754 1155.7072300385062 58.6858503241386 1156.1361168498515 54.565354015666436 1157.5386702867047 50.66724196213971 1158.9412237235579 46.769129908612996 1161.2359273142702 43.319960565734696 1163.5306309049822 39.8707912228564 1166.584116369045 37.071030474893135 1169.6376018331077 34.27126972692987 1173.2724004518825 32.283639800099465 1176.9071990706573 30.29600987326905 1180.9120561776404 29.23603191230727 1184.9169132846237 28.176053951345487 1184.915211202262 28.176290264760176 Z" fill="hsl(0, 0%, 100%)"></path><path d="M 1514.3577390123282 82.3771854331769 Q 1514.3577390123282 82.3771854331769 1514.1740946328205 94.71700445842676 1513.9904502533127 107.05682348367661 1512.4357164362136 133.44232385083427 1510.8809826191143 159.82782421799195 1509.8991608863817 179.9774504468793 1508.9173391536488 200.12707667576666 1507.8787565498046 225.45411017408946 1506.8401739459605 250.78114367241224 1505.8617834529055 274.7645018034927 1504.8833929598504 298.7478599345731 1504.0143094072964 326.23220664259054 1503.1452258547422 353.716553350608 1502.4079902006183 385.1063431568721 1501.6707545464944 416.4961329631362 1501.0122622810227 433.37872809938693 1500.3537700155507 450.2613232356377 1499.136449513343 476.5269777680377 1497.919129011135 502.7926323004377 1496.8566249580917 526.403666728755 1495.7941209050487 550.0147011570723 1495.3652024299195 572.3054217732478 1494.93628395479 594.5961423894232 1494.5994947791364 615.5377017601986 1494.2627056034826 636.4792611309741 1492.9391375447324 662.591375646801 1491.6155694859822 688.703490162628 1490.25820406968 709.1627106406493 1488.9008386533778 729.6219311186704 1486.3228919080757 747.5177809010146 1483.7449451627735 765.4136306833587 1473.6475914677687 748.6686484190653 1463.550237772764 731.9236661547719 1482.767033405456 729.2873642929038 1501.9838290381483 726.6510624310357 1523.243378880276 728.5155228615874 1544.5029287224038 730.3799832921393 1557.154516547406 731.717512097387 1569.8061043724083 733.0550409026349 1576.231358999226 732.5177214002961 1582.6566136260437 731.9804018979573 1588.9170775318648 733.5228677649861 1595.1775414376857 735.0653336320148 1600.6177423989684 738.5260882849616 1606.0579433602513 741.9868429379085 1610.1082909002762 747.0035444510595 1614.1586384403008 752.0202459642104 1616.395060102439 758.067644364858 1618.6314817645773 764.1150427655056 1618.8198236104452 770.5599738447438 1619.008165456313 777.0049049239822 1617.1287080449306 783.1725826965182 1615.2492506335482 789.3402604690543 1611.4987736520159 794.584927443995 1607.7482966704836 799.8295944189356 1602.5194760487975 803.6021325795468 1597.2906554271117 807.374670740158 1591.130950064637 809.2800943451705 1584.9712447021627 811.1855179501829 1578.5255773763552 811.0243286451688 1572.0799100505474 810.8631393401547 1566.0231438319095 808.6522136878989 1559.9663776132716 806.4412880356431 1554.932657523726 802.4121105355644 1549.8989374341802 798.3829330354857 1546.4152952958752 792.9573596354421 1542.93165315757 787.5317862353984 1541.3628272219785 781.2778759025864 1539.794001286387 775.0239655697745 1540.304248043095 768.5965043669119 1540.8144947998032 762.1690431640493 1543.3503912786916 756.2409879757605 1545.88628775758 750.3129327874717 1550.1823249278975 745.5049525568253 1554.478362098215 740.6969723261789 1560.0847437341854 737.5124638525069 1565.691125370156 734.3279553788351 1572.0208618345525 733.1003375399598 1578.350598298949 731.8727197010845 1584.740964513061 732.7305244087956 1591.1313307271732 733.5883291165068 1596.9132536614902 736.4417439914686 1602.6951765958074 739.2951588664304 1607.2632873928274 743.8454306180059 1611.8313981898473 748.3957023695815 1614.7074144432577 754.1664163442258 1617.583430696668 759.9371303188701 1618.4662327455426 766.3240912401174 1619.3490347944169 772.7110521613646 1618.146193031201 779.0455435347662 1616.943351267985 785.3800349081678 1613.780803542807 790.9988338147853 1610.6182558176288 796.6176327214029 1605.827121712146 800.9324494324946 1601.0359876066634 805.2472661435864 1595.1179001264568 807.8063382105001 1589.1998126462502 810.3654102774137 1589.2056109239966 810.3639557492822 1589.2114092017432 810.3625012211509 1580.1952825193703 811.122657864076 1571.1791558369976 811.8828145070011 1554.6459640872827 810.0709326868981 1538.112772337568 808.2590508667952 1521.8833377238457 806.7128089835849 1505.653903110123 805.1665671003746 1486.6598441407803 802.2282701691329 1467.6657851714374 799.2899732378913 1447.9907471147726 791.7979962976323 1428.315709058108 784.3060193573732 1422.4171563438304 753.7374712178612 1416.5186036295527 723.1689230783492 1418.2635583346816 703.8106507771001 1420.0085130398106 684.4523784758512 1421.2618692550693 658.903000575898 1422.515225470328 633.3536226759448 1423.2978024094286 612.7011839389736 1424.0803793485295 592.0487452020022 1424.9822754495717 568.8924905862619 1425.8841715506137 545.7362359705216 1427.3232961490326 522.2048742136136 1428.7624207474512 498.6735124567056 1430.2112269839827 473.53233017346565 1431.6600332205144 448.3911478902257 1432.0784768409794 415.6770359469766 1432.4969204614447 382.96292400372755 1432.8255598777337 355.86273557646734 1433.1541992940224 328.7625471492072 1433.4812849586144 312.3528987675163 1433.8083706232064 295.9432503858255 1434.9911500398025 271.9212136218333 1436.1739294563986 247.89917685784118 1437.3679538350516 222.07869483815693 1438.5619782137046 196.2582128184727 1440.2080393851247 175.61049027616394 1441.8541005565446 154.96276773385515 1443.6644789602096 130.15255594161758 1445.474857363875 105.34234414938003 1445.9080464804608 93.00953400898047 1446.3412355970468 80.67672386858091 1446.93711584115 76.61959705748913 1447.532996085253 72.56247024639734 1449.082524335131 68.76585156269704 1450.632052585009 64.96923287899673 1453.0451701859747 61.653781978967935 1455.4582877869404 58.338331078939134 1458.5947442306458 55.69674212466732 1461.7312006743512 53.0551531703955 1465.4087049649224 51.24095543601746 1469.0862092554937 49.42675770163942 1473.0910246707758 48.545392444716924 1477.0958400860582 47.664027187794424 1481.1952065659498 47.76671939847057 1485.2945730458412 47.869411609146724 1489.2502352179229 48.95019281131206 1493.2058973900046 50.03097401347739 1496.787951982979 52.02702915288176 1500.3700065759535 54.02308429228613 1503.3702644085752 56.81840255044311 1506.3705222411966 59.6137208086001 1508.6146081872666 63.04583815700815 1510.8586941333365 66.47795550541619 1512.2161818122313 70.34739712252848 1513.5736694911263 74.21683873964076 1513.9656616551677 78.29871249686579 1514.357653819209 82.38058625409082 1514.3576964157687 82.37888584363387 Z" fill="hsl(0, 0%, 100%)"></path><path d="M 1481.2583791760924 385.83627424123125 Q 1481.2583791760924 385.83627424123125 1498.2075675478127 387.5232277014629 1515.156755919533 389.2101811616945 1533.4777147946816 389.968204785794 1551.79867366983 390.7262284098935 1568.501962429224 390.4699075309086 1585.2052511886184 390.2135866519237 1590.8841518774643 391.204116317831 1596.5630525663103 392.1946459837382 1601.6283747061327 394.9466586422561 1606.6936968459552 397.69867130077404 1610.6150998715993 401.924030500095 1614.5365028972435 406.1493896994159 1616.9034148767746 411.40569921598444 1619.270326856306 416.66200873255303 1619.8349314806633 422.39893157245353 1620.3995361050206 428.13585441235404 1619.1027191209923 433.75273323984834 1617.8059021369643 439.3696120673427 1614.783440625105 444.27835818648015 1611.7609791132456 449.1871043056176 1607.3293255916992 452.8737707019414 1602.8976720701528 456.5604370982652 1597.520821832468 458.6390288268948 1592.1439715947834 460.7176205555244 1586.3848822801965 460.9705085137773 1580.6257929656097 461.22339647203023 1575.08744274561 459.6241032239215 1569.5490925256101 458.0248099758128 1564.811348130214 454.7407819465918 1560.0736037348177 451.45675391737086 1556.632508252866 446.8318297085963 1553.1914127709142 442.20690549982163 1551.4072498077285 436.7253158970135 1549.6230868445427 431.24372629420543 1549.6826587333417 425.479395175777 1549.7422306221406 419.7150640573485 1551.6393001704414 414.2715184130348 1553.5363697187424 408.8279727687211 1557.0723132440608 404.27515326443825 1560.6082567693788 399.7223337601554 1565.412860051215 396.53692179982943 1570.217463333051 393.35150983950354 1575.7876831395047 391.8670188962477 1581.3579029459584 390.38252795299195 1587.1105357928986 390.7543846204327 1592.8631686398392 391.1262412878735 1598.195912349644 393.3155120747691 1603.5286560594488 395.50478286166475 1607.883170957994 399.28225053871597 1612.237685856539 403.05971821576713 1615.1580530844662 408.02988092003204 1618.0784203123935 413.0000436242969 1619.258876650037 418.64252400864336 1620.4393329876807 424.2850043929899 1619.756284344879 430.0090332717067 1619.0732357020772 435.73306215042356 1616.598197452039 440.9393321889122 1614.1231592020006 446.1456022274009 1610.1152685028514 450.28901557830983 1606.107377803702 454.43242892921876 1600.9862618696231 457.0791691209529 1595.8651459355442 459.725909312687 1590.1669869566772 460.5988619485002 1584.46882797781 461.4718145843134 1584.474172344945 461.4718698160546 1584.4795167120799 461.4719250477958 1582.5121173181856 461.3608133639051 1580.544717924291 461.24970168001437 1563.9483740120725 460.2651510203792 1547.352030099854 459.280600360744 1528.2265463919184 457.554012242347 1509.1010626839827 455.82742412395004 1492.1253212461327 454.43029784175 1475.1495798082826 453.03317155955 1471.1735172719727 452.1794914548879 1467.1974547356626 451.3258113502258 1463.541242067347 449.5453754660133 1459.885029399031 447.76493958180083 1456.7611658507785 445.1612269352818 1453.637302302526 442.5575142887627 1451.227346970535 439.28185278128774 1448.8173916385444 436.00619127381276 1447.261411239942 432.24896250610254 1445.7054308413396 428.4917337383924 1445.0938590299997 424.47130802295897 1444.4822872186598 420.45088230752555 1444.8506685769921 416.40092697584873 1445.2190499353244 412.350971644172 1446.545974121474 408.50687029041524 1447.872898307624 404.66276893665844 1450.081244425547 401.2479409121164 1452.2895905434702 397.8331128875743 1455.2510094130344 395.0460281574783 1458.2124282825982 392.25894342738235 1461.7548020999625 390.26158748719627 1465.2971759173265 388.2642315470102 1469.214621749788 387.17269081782297 1473.1320675822494 386.08115008863575 1477.196903293965 385.95886496891353 1481.2617390056807 385.83657984919137 1481.2600590908864 385.8364270452113 Z" fill="hsl(0, 0%, 100%)"></path><path d="M 1460.5708654619789 53.52516069075357 Q 1460.5708654619789 53.52516069075357 1474.7670333953943 50.13985426938774 1488.9632013288094 46.7545478480219 1515.2914749518995 43.851623209747316 1541.61974857499 40.94869857147273 1559.8537866004624 42.19994811806187 1578.087824625935 43.45119766465101 1596.4363524607127 47.99394687592447 1614.7848802954904 52.53669608719793 1595.5037294055337 73.94846107023312 1576.222578515577 95.3602260532683 1576.0788510164205 89.40528895014305 1575.935123517264 83.45035184701777 1577.7003990785347 77.76126266781063 1579.4656746398055 72.07217348860347 1582.955128444251 67.2445813721511 1586.4445822486964 62.41698925569873 1591.2928675618646 58.95634437095427 1596.141152875033 55.495699486209816 1601.8406529448125 53.76433226612754 1607.540153014592 52.03296504604527 1613.494128679155 52.21215009560434 1619.4481043437177 52.391335145163424 1625.0331727792873 54.462311742374766 1630.6182412148567 56.533288339586115 1635.2496442819138 60.27922468803696 1639.881047348971 64.02516103648782 1643.0738759238232 69.0538566116642 1646.2667044986754 74.08255218684059 1647.6866685867108 79.86750123457483 1649.1066326747464 85.65245028230909 1648.6050616611137 91.58796711022518 1648.1034906474808 97.52348393814127 1645.732899149709 102.98811836753211 1643.3623076519373 108.45275279692295 1639.3708972256186 112.87435616050794 1635.3794867992997 117.29595952409292 1630.1851591696995 120.21158878251477 1624.9908315400996 123.12721804093661 1619.1374341812068 124.23160604118716 1613.284036822314 125.33599404143771 1607.384421982751 124.51351106836064 1601.4848071431882 123.69102809528357 1596.1566660540047 121.02778833327446 1590.8285249648213 118.36454857126533 1586.6297154045474 114.13939392643354 1582.4309058442734 109.91423928160177 1579.8010442822479 104.5695445605937 1577.171182720222 99.22484983958563 1576.3856163562048 93.32020599055323 1575.6000499921875 87.41556214152084 1576.7410278318607 81.56918693413236 1577.8820056715338 75.72281172674388 1580.8300670338945 70.54682218850611 1583.7781283962552 65.37083265026834 1588.224610478452 61.407156252163276 1592.6710925606487 57.44347985405821 1598.1504475149181 55.10711456127643 1603.6298024691876 52.77074926849465 1609.5683403854082 52.30631314393092 1615.506878301629 51.8418770193672 1621.2828326923511 53.297996647862604 1627.0587870830732 54.754116276358 1632.0674139988841 57.97833554843079 1637.076040914695 61.20255482050359 1640.7929357953603 65.85729712725654 1644.5098306760258 70.5120394340095 1646.5458336463748 76.10995202719292 1648.5818366167239 81.70786462037636 1648.5808126896086 81.70243767597812 1648.5797887624935 81.69701073157988 1612.7955387984705 99.32265839623014 1577.0112888344474 116.94830606088038 1560.7465900073532 113.73410238066344 1544.481891180259 110.5198987004465 1524.6824040077558 111.98827158710097 1504.882916835253 113.45664447375543 1490.705586233512 116.85631348573921 1476.5282556317711 120.25598249772298 1472.4197677617785 120.72592583811716 1468.311279891786 121.19586917851134 1464.2097164632282 120.6688997651928 1460.1081530346703 120.14193035187427 1456.2518971067261 118.64867567190463 1452.3956411787817 117.15542099193499 1449.0088185271684 114.78266907747435 1445.6219958755553 112.40991716301372 1442.9014487919142 109.29557246681381 1440.180901708273 106.1812277706139 1438.2847485169295 102.50629615274471 1436.3885953255863 98.83136453487553 1435.4270405391117 94.80943319363355 1434.465485752637 90.78750185239157 1434.4944149803996 86.65232562629942 1434.5233442081624 82.51714940020727 1435.5410760820855 78.50906492581585 1436.5588079560084 74.50098045142443 1438.5061918517617 70.85293778670439 1440.453575747515 67.20489512198435 1443.2174296215799 64.12891867801179 1445.9812834956444 61.05294223403923 1449.400972031001 58.72780790626196 1452.8206605663572 56.40267357848468 1456.6974313046571 54.96351828327908 1460.574202042957 53.52436298807348 1460.572533752468 53.52476183941353 Z" fill="hsl(0, 0%, 100%)"></path><path d="M 1769.3651658300778 59.105537543914366 Q 1769.3651658300778 59.105537543914366 1770.2877258891904 78.86314238832169 1771.2102859483032 98.62074723272902 1772.3623460374133 125.21868193222389 1773.5144061265235 151.81661663171877 1773.908666868145 178.793523234853 1774.3029276097666 205.77042983798728 1774.5396938421827 237.5708606090226 1774.776460074599 269.3712913800579 1774.6478669567007 288.47441671854085 1774.5192738388023 307.5775420570238 1774.381701037115 341.92471968247617 1774.2441282354275 376.2718973079286 1773.4432072354439 398.46189696142824 1772.64228623546 420.65189661492786 1771.7890813699992 454.5043407363229 1770.9358765045383 488.35678485771786 1771.022651528404 514.8577346397134 1771.1094265522697 541.3586844217089 1771.5967439552687 561.1263619685603 1772.0840613582675 580.8940395154118 1773.7475339753871 602.3881603224352 1775.4110065925067 623.8822811294584 1778.921579037247 639.8390674776131 1782.4321514819874 655.7958538257676 1787.676408747967 671.1806696491133 1792.9206660139462 686.5654854724589 1760.9324153121079 707.4301268362965 1728.9441646102694 728.294768200134 1727.2429178448813 722.4511791461008 1725.5416710794932 716.6075900920677 1725.7954090196622 710.5266863231466 1726.049146959831 704.4457825542255 1728.2313031762405 698.7642363002253 1730.4134593926503 693.082690046225 1734.2955615534097 688.395360699722 1738.1776637141688 683.708031353219 1743.3532546982706 680.5056835341269 1748.5288456823723 677.3033357150348 1754.456039747558 675.9212560853501 1760.3832338127434 674.5391764556655 1766.4414521757603 675.12206911745 1772.4996705387775 675.7049617792345 1778.0546161378038 678.1917977169305 1783.6095617368303 680.6786336546267 1788.0796303012849 684.8090404890966 1792.5496988657392 688.9394473235664 1795.46687303694 694.2809703689196 1798.3840472081406 699.6224934142729 1799.4428980803034 705.6158737976357 1800.5017489524662 711.6092541809986 1799.5914145597665 717.6269833941344 1798.6810801670667 723.6447126072702 1795.8968727607248 729.0567328130372 1793.112665354383 734.4687530188043 1788.7460921848024 738.7084242730241 1784.3795190152218 742.948095527244 1778.8877614459211 745.5715231304355 1773.3960038766202 748.194950733627 1767.3540503747881 748.9274611232183 1761.3120968729563 749.6599715128095 1755.3525415651557 748.4248706576464 1749.392986257355 747.1897698024832 1744.1397961574824 744.1163730881362 1738.8866060576097 741.0429763737892 1734.889791555829 736.4530692475485 1730.8929770540485 731.8631621213076 1728.571005683753 726.2373090709083 1726.2490343134575 720.611456020509 1725.845017090058 714.5386853454088 1725.4409998666586 708.4659146703086 1726.9972375000953 702.5820470632466 1728.5534751335317 696.6981794561844 1731.9070291327766 691.6192574088099 1735.2605831320216 686.5403353614353 1740.0603355081018 682.7981233528136 1744.8600878841821 679.0559113441919 1750.6035032963102 677.0422199594739 1756.3469187084384 675.0285285747559 1762.4326600468503 674.9541918334844 1768.5184013852625 674.8798550922129 1774.3092899253468 676.752656070822 1780.100178465431 678.6254570494312 1784.989906648395 682.2493129910891 1789.8796348313585 685.873168932747 1793.3562468256825 690.8686611637572 1796.8328588200065 695.8641533947673 1796.830426523878 695.8590617426635 1796.8279942277493 695.8539700905595 1760.6959086238285 705.6698943457138 1724.5638230199079 715.4858186008682 1719.7187628244328 699.1408808469362 1714.8737026289577 682.7959430930042 1711.4929511633281 664.7140113374497 1708.1121996976983 646.6320795818953 1706.661810172936 623.1424739863353 1705.2114206481738 599.6528683907754 1705.7396683078987 580.3612623580972 1706.2679159676236 561.0696563254189 1706.9746377336457 540.2854026608832 1707.681359499668 519.5011489963473 1707.9777520124649 503.06171509359615 1708.274144525262 486.62228119084494 1709.2778144093252 453.21377951030604 1710.2814842933883 419.8052778297672 1710.076730098765 398.07804826455873 1709.871975904142 376.35081869935027 1709.5719116813755 342.1956246287191 1709.271847458609 308.04043055808796 1708.8749506526542 289.32432741056186 1708.4780538466994 270.60822426303577 1708.0493067195416 238.30438384163432 1707.620559592384 206.0005434202329 1707.7449238417712 179.43956055000683 1707.8692880911583 152.8785776797808 1707.5271115450603 127.75034342710865 1707.1849349989623 102.62210917443649 1705.6402312641299 82.90349989607161 1704.0955275292972 63.18489061770673 1704.3256409452642 59.250120510648046 1704.5557543612313 55.31535040358937 1705.720862185831 51.549996271948224 1706.8859700104308 47.78464214030708 1708.9183561221553 44.40754654312885 1710.9507422338795 41.030450945950626 1713.7322842564238 38.23789083801549 1716.513826278968 35.44533073008034 1719.8828608592917 33.39960983606934 1723.2518954396155 31.35388894205833 1727.0126141296168 30.173904656449174 1730.7733328196184 28.993920370840016 1734.707162472338 28.748253435753636 1738.6409921250577 28.502586500667256 1742.519298376249 29.205515089913476 1746.3976046274406 29.9084436791597 1749.9949801355633 31.519113550104578 1753.592355643686 33.12978342104945 1756.6997207751858 35.55458236511668 1759.8070859066856 37.97938130918391 1762.2438404541208 41.07737989781559 1764.6805950015562 44.17537848644727 1766.3051146761395 47.766520896113306 1767.929634350723 51.35766330577934 1768.6475019926402 55.233232170900834 1769.365369634557 59.10880103602232 1769.3652677323175 59.10716928996834 Z" fill="hsl(0, 0%, 100%)"></path><path d="M 1710.3288861012575 64.15525468612412 Q 1710.3288861012575 64.15525468612412 1722.051762633618 55.833006397008326 1733.7746391659784 47.51075810789253 1754.303937804395 34.23035293705893 1774.8332364428115 20.949947766225332 1792.8475796214539 14.847026037549737 1810.8619228000962 8.744104308874142 1829.9256225689887 8.34545943383678 1848.989322337881 7.946814558799417 1864.9909550470852 11.646334540952918 1880.9925877562891 15.345854523106418 1898.4511508899095 23.671786147302686 1915.9097140235297 31.997717771498955 1936.3948788338084 46.0971145915924 1956.8800436440872 60.19651141168584 1973.9574958634328 77.19928012167676 1991.0349480827783 94.20204883166768 2002.1973488711164 117.6911325987264 2013.3597496594548 141.18021636578513 2014.529719014512 158.5386766275913 2015.6996883695692 175.89713688939744 2010.7833061801648 196.857953370803 2005.8669239907606 217.81876985220853 1996.6887339996665 238.26099779274944 1987.5105440085724 258.7032257332903 1976.702572206642 274.1187390021178 1965.8946004047114 289.53425227094533 1950.0372657540147 300.5656745418877 1934.1799311033178 311.5970968128301 1915.2899609060282 321.1789508361204 1896.3999907087384 330.76080485941065 1879.8188581929605 337.82630134681943 1863.2377256771827 344.8917978342282 1846.3162656969973 348.3994981121826 1829.394805716812 351.90719839013695 1807.1562080522713 345.96312306432435 1784.9176103877307 340.0190477385118 1777.936473932036 334.33090619002735 1770.9553374763414 328.6427646415429 1766.8480105689036 323.32090441699677 1762.7406836614657 317.99904419245064 1760.5477061443617 311.64426802144 1758.3547286272578 305.28949185042933 1758.3057058254183 298.5671464755569 1758.2566830235787 291.84480110068455 1760.3567476372968 285.45871785722636 1762.4568122510152 279.07263461376823 1766.4860869608717 273.6914381030766 1770.5153616707282 268.31024159238507 1776.0519803509758 264.4973445096274 1781.5885990312233 260.68444742686967 1788.0528762445147 258.83906110311773 1794.517153457806 256.99367477936573 1801.232277673506 257.30901164985096 1807.947401889206 257.62434852033624 1814.2102978293105 260.06739273147804 1820.4731937694148 262.51043694261983 1825.6281345757504 266.82540112061065 1830.783075382086 271.14036529860147 1834.2903373914576 276.87547155496566 1837.797599400829 282.61057781132985 1839.289971355028 289.16535900710517 1840.782343309227 295.72014020288043 1840.1035734707007 302.4083090165749 1839.4248036321742 309.0964778302694 1836.6459593821942 315.2177812215842 1833.8671151322142 321.33908461289894 1829.279142197297 326.2526205008962 1824.69116926238 331.16615638889346 1818.774429619919 334.3574762690523 1812.8576899774578 337.54879614921117 1806.2316678298857 338.68376798765246 1799.605645682314 339.81873982609375 1792.964087297582 338.77853177172915 1786.32252891285 337.7383237173645 1780.3608072070406 334.63184582807423 1774.3990855012312 331.525367938784 1769.7413943106842 326.6778692696073 1765.0837031201372 321.83037060043057 1762.217703942014 315.7493855416456 1759.351704763891 309.66840048286065 1758.5774684686914 302.99060977534634 1757.803232173492 296.3128190678321 1759.201821505702 289.73738916143077 1760.600410837912 283.16195925502944 1764.0253931252573 277.37733939668624 1767.4503754126029 271.59271953834303 1772.543154105491 267.2045609542178 1777.6359327983794 262.8164023700926 1783.863292623302 260.2841464223046 1790.0906524482245 257.7518904745167 1796.800587187649 257.34066502925003 1803.5105219270733 256.92943958398337 1810.000499642531 258.6823000539104 1816.4904773579883 260.43516052383745 1822.080995669483 264.16858195504665 1827.6715139809776 267.90200338625584 1827.6669584238493 267.89774967298615 1827.662402866721 267.8934959597164 1830.8449537305992 267.9550394062027 1834.027504594477 268.016582852689 1854.959974532165 258.28404603584 1875.892444469853 248.55150921899096 1894.1304915330716 238.15019407474858 1912.3685385962904 227.74887893050624 1921.118781219839 210.86376294854927 1929.869023843388 193.97864696659227 1932.4992170334933 171.90736862740198 1935.1294102235986 149.8360902882117 1922.4225057491085 135.0649061809155 1909.7156012746184 120.29372207361928 1894.4688453340518 108.89993887332645 1879.2220893934852 97.50615567303363 1861.513126023174 89.09200732016193 1843.8041626528627 80.67785896729022 1826.3460649459985 81.39172345039502 1808.887967239134 82.10558793349982 1791.2895802963435 92.89757503472137 1773.691193353553 103.68956213594292 1761.9750989386478 112.02134226250706 1750.2590045237425 120.35312238907119 1746.6065495363478 122.3338948112719 1742.9540945489528 124.3146672334726 1738.9337353273293 125.36376139159361 1734.9133761057058 126.41285554971464 1730.7587761167101 126.46929804199448 1726.6041761277145 126.52574053427433 1722.5568009179103 125.58625092040978 1718.5094257081062 124.64676130654522 1714.8045089148522 122.76594276703578 1711.0995921215983 120.88512422752635 1707.9524636829935 118.17229002425822 1704.8053352443887 115.45945582099007 1702.398906413152 112.07227600531914 1699.992477581915 108.68509618964822 1698.466610114783 104.82043381160727 1696.940742647651 100.95577143356631 1696.3841200335064 96.83824085214745 1695.8274974193616 92.72071027072859 1696.2724705906912 88.58962255678523 1696.7174437620206 84.45853484284186 1698.1381508571994 80.55398900840672 1699.5588579523785 76.64944317397156 1701.8727274082835 73.1983716063963 1704.1865968641887 69.74730003882102 1707.2591464793259 66.95027917976103 1710.3316960944633 64.15325832070101 1710.3302910978605 64.15425650341257 Z" fill="hsl(0, 0%, 100%)"></path><path d="M 2084.4845405561127 59.88629947499587 Q 2084.4845405561127 59.88629947499587 2088.4872192182042 74.69776364762414 2092.4898978802958 89.5092278202524 2096.5609363630974 118.2919947650268 2100.631974845899 147.0747617098012 2101.622183113008 169.2166382583513 2102.612391380116 191.3585148069014 2102.868087689798 221.83621937866297 2103.1237839994797 252.3139239504245 2103.397685777758 279.5352030107085 2103.6715875560362 306.7564820709926 2104.0892855805696 335.1894210909056 2104.506983605103 363.62236011081865 2103.882053272245 383.0342155971961 2103.257122939386 402.4460710835736 2102.382859311866 422.9888576594394 2101.5085956843463 443.53164423530524 2100.329802383585 464.2230246705715 2099.1510090828237 484.9144051058377 2098.2300417237857 504.8804557167821 2097.309074364747 524.8465063277265 2095.78453700874 548.5566107179226 2094.259999652732 572.2667151081187 2093.5463091233223 598.3864689110906 2092.8326185939122 624.5062227140623 2091.253340495913 652.2428491822893 2089.6740623979135 679.9794756505164 2088.0510404519896 699.5534439989871 2086.4280185060657 719.1274123474577 2084.9372161028627 736.8517405037992 2083.44641369966 754.5760686601407 2066.7634274508437 770.8546064415336 2050.0804412020275 787.1331442229265 2033.7127496638018 781.4324245074563 2017.345058125576 775.7317047919862 2012.8958966188816 759.1231075757308 2008.446735112187 742.5145103594755 2006.6639234348022 723.1346906471006 2004.881111757417 703.7548709347255 2006.1489266684785 686.1785428075962 2007.4167415795396 668.6022146804668 2013.4945376223877 645.8480907716425 2019.5723336652359 623.0939668628184 2026.427073893361 600.8185348204048 2033.2818141214861 578.5431027779912 2040.8720091567386 556.6490002652403 2048.462204191991 534.7548977524893 2058.368771853631 513.1328996038346 2068.275339515271 491.5109014551798 2079.2645126738507 478.9568819572036 2090.253685832431 466.40286245922744 2107.1139963567084 457.66274364448657 2123.9743068809853 448.9226248297457 2141.7847289162028 448.24974052355316 2159.5951509514207 447.5768562173606 2178.37332184797 454.7391711271266 2197.151492744519 461.90148603689266 2211.6707068744554 470.95159983856047 2226.189921004392 480.0017136402283 2240.851003124964 492.8962197459855 2255.5120852455357 505.79072585174276 2268.9643958814618 522.3936835749789 2282.416706517388 538.996641298215 2292.4452929456434 555.1192156733046 2302.473879373899 571.2417900483941 2308.3501491403003 596.3758729245432 2314.2264189067023 621.5099558006922 2310.6504342492153 647.7473929804496 2307.0744495917284 673.9848301602069 2296.554079599645 698.8204208506644 2286.0337096075614 723.6560115411219 2271.105900827295 742.7386845899271 2256.1780920470287 761.8213576387321 2239.873347637224 766.1162005401906 2223.5686032274193 770.411043441649 2202.8069941896883 767.5042796038218 2182.045385151957 764.5975157659947 2163.0619394148544 760.6739585485523 2144.0784936777522 756.7504013311097 2120.088184310398 751.6793667890136 2096.0978749430433 746.6083322469174 2083.1163484448675 742.2734737000353 2070.1348219466918 737.9386151531534 2064.552157124777 734.4936820526093 2058.969492302862 731.0487489520651 2054.779086903118 726.0015504056568 2050.588681503374 720.9543518592484 2048.229272077314 714.8333308871157 2045.8698626512537 708.712309914983 2045.5884799886094 702.158339028701 2045.307097325965 695.6043681424188 2047.1332022657932 689.3036498238614 2048.9593072056214 683.002931505304 2052.701706078677 677.6151526256522 2056.4441049517327 672.2273737460005 2061.7109676081095 668.3166361761894 2066.9778302644863 664.4058986063784 2073.2177147937455 662.3816576023019 2079.4575993230046 660.3574165982252 2086.0171881677625 660.4316107273576 2092.5767770125203 660.5058048564899 2098.7692794891677 662.6706659739257 2104.961781965815 664.8355270913615 2110.138841430385 668.8643936666374 2115.315900894955 672.8932602419134 2118.9354778548964 678.3643088810804 2122.5550548148376 683.8353575202476 2124.2381786069686 690.1757679865685 2125.9213023990997 696.5161784528894 2125.491749518083 703.0621080968347 2125.0621966370663 709.6080377407799 2122.564941382935 715.6741260006706 2120.067686128804 721.7402142605613 2115.7641917858773 726.6913400942951 2111.4606974429503 731.6424659280291 2105.8015410049447 734.960245153844 2100.142384566939 738.278024379659 2093.720081206786 739.6150846368034 2087.297777846633 740.9521448939478 2080.7847444214635 740.168495620549 2074.271710996294 739.3848463471503 2068.349863824998 736.5625358289965 2062.428016653702 733.7402253108428 2057.717374698329 729.1747502042024 2053.0067327429565 724.6092750975621 2050.0005014597236 718.7786418512687 2046.994270176491 712.9480086049753 2046.0072027743204 706.4626860590533 2045.02013537215 699.9773635131315 2046.1555780686094 693.5163666500982 2047.2910207650689 687.0553697870648 2050.4300924101112 681.2951666840171 2053.5691640551536 675.5349635809694 2058.3832030189087 671.0786490233422 2063.1972419826634 666.6223344657152 2069.182217114843 663.9364857640451 2075.1671922470223 661.2506370623751 2081.696475071407 660.616463284722 2088.225757895792 659.982289507069 2094.615730777106 661.4661888153589 2101.00570365842 662.9500881236488 2101.0000795188507 662.947772807503 2100.994455379281 662.9454574913574 2104.018439060952 664.400779260347 2107.0424227426233 665.8561010293366 2125.951525489839 670.4388826076736 2144.8606282370547 675.0216641860106 2162.568295880346 678.4694833636745 2180.275963523637 681.9173025413385 2201.623228965155 678.0184157980916 2222.9704944066725 674.1195290548446 2228.784306086597 657.36383239343 2234.598117766522 640.6081357320154 2231.379214696275 620.5713281177566 2228.1603116260276 600.5345205034979 2214.2117467893004 581.6890286910786 2200.263181952573 562.8435368786593 2185.5688804970396 550.18127930626 2170.8745790415055 537.5190217338605 2152.0022138577906 533.644058357693 2133.1298486740757 529.7690949815253 2125.1399025975443 545.5654007276245 2117.1499565210124 561.3617064737236 2110.1425277785256 581.002713707571 2103.1350990360384 600.6437209414185 2096.3606895579824 622.3792583191725 2089.5862800799264 644.1147956969266 2083.4937914575275 666.4234535285968 2077.401302835129 688.732111360267 2068.3924683221458 708.6118341372005 2059.383633809162 728.4915569141341 2041.7609059718002 721.5305751809897 2024.1381781344387 714.5695934478454 2025.3556623717975 695.3222154466774 2026.5731466091563 676.0748374455095 2028.4505055753643 648.704900123159 2030.3278645415724 621.3349628008083 2032.1893158198418 595.666393741802 2034.050767098111 569.9978246827959 2034.3083896259452 546.4141220921678 2034.5660121537794 522.8304195015396 2034.935616304516 502.63221609510344 2035.3052204552528 482.43401268866734 2035.7116930690363 462.3204955451245 2036.1181656828198 442.2069784015817 2036.0715239452213 421.8888024270098 2036.0248822076228 401.5706264524379 2035.8959245661233 382.8923063835575 2035.7669669246238 364.21398631467713 2035.2311610225297 335.6253032064219 2034.6953551204358 307.0366200981667 2034.5567104921047 280.4044634458612 2034.4180658637738 253.7723067935558 2033.841141158815 223.0934017237679 2033.264216453856 192.41449665397997 2033.0597533380055 172.38607386258946 2032.8552902221552 152.35765107119894 2030.312231083039 129.68564675273157 2027.7691719439226 107.01364243426418 2023.753155537655 92.21794546645056 2019.7371391313875 77.42224849863693 2019.1583398176103 73.42096198431543 2018.5795405038332 69.41967546999392 2018.9751615366047 65.39614637059015 2019.3707825693762 61.372617271186385 2020.7178304356835 57.560693287002415 2022.0648783019908 53.748769302818445 2024.2850625165534 50.36999963491753 2026.505246731116 46.99122996701661 2029.4695300830685 44.241988867247954 2032.433813435021 41.4927477674793 2035.969911636672 39.532821257734 2039.5060098383226 37.5728947479887 2043.4084046960488 36.516193849099906 2047.3107995537748 35.459492950211114 2051.3526836950923 35.36743316807112 2055.3945678364094 35.27537338593113 2059.3410267651175 36.15330523940332 2063.2874856938256 37.031237092875514 2066.909151031564 38.828135141386646 2070.5308163693026 40.62503318989778 2073.617196756479 43.236461634441476 2076.703577143656 45.84789007898517 2079.0752920071545 49.12207257566713 2081.4470068706532 52.396255072349085 2082.966212031173 56.142895980625326 2084.4854171916936 59.88953688890157 2084.484978873903 59.88791818194872 Z" fill="hsl(0, 0%, 100%)"></path><path d="M 2379.788390568381 85.63857334910256 Q 2379.788390568381 85.63857334910256 2383.686728720768 104.17059796182778 2387.585066873154 122.702622574553 2390.1659433689047 140.66383693482862 2392.7468198646548 158.62505129510427 2395.5530939047067 186.63044997516235 2398.3593679447586 214.63584865522043 2399.745385317005 233.02677205330366 2401.1314026892514 251.41769545138692 2402.115314006941 272.17956700383775 2403.099225324631 292.9414385562886 2404.1759198705486 330.11006625215254 2405.2526144164667 367.2786939480165 2404.3837329967564 390.1030011290941 2403.5148515770466 412.9273083101716 2403.1783544781056 429.3245949955317 2402.8418573791646 445.7218816808918 2401.2357540348276 466.1976631918385 2399.62965069049 486.6734447027852 2397.979739041601 506.58401463036404 2396.329827392712 526.4945845579429 2395.5164548886464 543.2585757084155 2394.7030823845807 560.0225668588882 2394.803323298969 582.2470148854412 2394.903564213357 604.4714629119942 2396.40870231217 622.281940283072 2397.9138404109826 640.0924176541498 2400.6582658095876 659.8526946471461 2403.402691208193 679.6129716401425 2406.2602259873374 696.5492247870529 2409.1177607664813 713.4854779339635 2395.8969787567366 748.3904473600082 2382.6761967469924 783.2954167860531 2376.7573216645474 783.6848009681719 2370.8384465821023 784.0741851502905 2365.1050906090313 782.553221124115 2359.37173463596 781.0322570979394 2354.4241816561016 777.7601901985056 2349.4766286762438 774.4881232990717 2345.8328887926173 769.8075397944922 2342.189148908991 765.1269562899126 2340.2307226492658 759.5279145086708 2338.2722963895403 753.9288727274292 2338.2042315000836 747.9975938220248 2338.1361666106272 742.0663149166203 2339.965589503333 736.4238053541545 2341.795012396038 730.7812957916888 2345.330382011119 726.0183278128299 2348.8657516262 721.2553598339709 2353.73691383171 717.8706174434067 2358.60807603722 714.4858750528424 2364.3050188643806 712.8337416723502 2370.001961691541 711.181608291858 2375.928213722502 711.4350627224961 2381.854465753462 711.6885171531343 2387.389546836202 713.8210226491096 2392.924627918942 715.9535281450849 2397.4890136029794 719.7418108180419 2402.053399287017 723.530093490999 2405.169197186352 728.5775191450696 2408.2849950856876 733.6249447991403 2409.6259803377698 739.4030466359524 2410.9669655898515 745.1811484727644 2410.392736684801 751.0849577047329 2409.818507779751 756.9887669367015 2407.3891866355093 762.4001531787851 2404.9598654912675 767.8115394208688 2400.929802672915 772.1639291050542 2396.8997398545616 776.5163187892394 2391.690884003013 779.354015566673 2386.482028151464 782.1917123441065 2380.6397478493805 783.2176086131117 2374.797467547297 784.243504882117 2368.933451084519 783.3501890325188 2363.0694346217415 782.4568731829205 2357.797646069872 779.7378756199842 2352.525857518003 777.0188780570479 2348.39825453004 772.7588785433587 2344.2706515420773 768.4988790296695 2341.719395240442 763.1439006388412 2339.1681389388064 757.7889222480129 2338.460346531746 751.8996326311424 2337.7525541246855 746.0103430142717 2338.962331664058 740.2033523488667 2340.172109203431 734.3963616834616 2343.172792661514 729.2796634250866 2346.173476119597 724.1629651667116 2350.6508931462263 720.2722789736957 2355.1283101728554 716.3815927806799 2360.6136740234188 714.1242745244733 2366.0990378739825 711.8669562682667 2366.0936807394037 711.8681995551915 2366.0883236048244 711.8694428421162 2352.5208449888296 718.8945358577333 2338.953366372835 725.9196288733505 2337.327209335717 707.1112737733287 2335.701052298599 688.3029186733069 2334.2532005820267 666.6712308882074 2332.805348865454 645.0395431031079 2332.4087737776354 624.2836498163932 2332.012198689816 603.5277565296785 2333.279174523317 580.0781044189478 2334.5461503568185 556.628452308217 2335.6592751392145 539.2498489166303 2336.7723999216105 521.8712455250437 2338.2043804403147 502.083584900994 2339.636360959019 482.29592427694433 2341.6030543546894 446.98504542980874 2343.5697477503604 411.67416658267314 2343.6307687708813 390.014651646801 2343.691789791402 368.3551367109288 2342.372002750949 332.5513864546854 2341.0522157104956 296.7476361984421 2339.530461221065 276.6634589119516 2338.0087067316344 256.5792816254611 2335.1512195915147 222.8228727351534 2332.2937324513946 189.0664638448457 2329.6281548106044 162.44505292121812 2326.9625771698143 135.82364199759053 2322.8422202538413 117.34672286184164 2318.721863337869 98.86980372609275 2318.373877139821 95.12002060416427 2318.0258909417735 91.3702374822358 2318.5854270758655 87.64614199874225 2319.144963209957 83.92204651524872 2320.5795014097857 80.44008327466665 2322.014039609614 76.95812003408459 2324.240204447603 73.92066090355596 2326.4663692855925 70.88320177302734 2329.3547759567628 68.46678401993287 2332.243182627933 66.05036626683842 2335.6259568008445 64.39543220452288 2339.0087309737564 62.74049814220734 2342.6892656545415 61.94323261612925 2346.369800335326 61.14596709005116 2350.134182675407 61.25270721004553 2353.898565015488 61.35944733003989 2357.5280089363914 62.363989355317486 2361.157452857295 63.36853138059507 2364.4410149078094 65.21249128144855 2367.7245769583233 67.05645118230203 2370.4714163577946 69.63265792265571 2373.2182557572655 72.2088646630094 2375.268726070737 75.36758898607135 2377.3191963842087 78.52631330913331 2378.5541241807205 82.08397000883518 2379.7890519772327 85.64162670853705 2379.788721272807 85.6401000288198 Z" fill="hsl(0, 0%, 100%)"></path></svg>