<svg xmlns="http://www.w3.org/2000/svg" viewBox="0 0 800 800"><defs><filter id="nnneon-filter" x="-100%" y="-100%" width="400%" height="400%" filterUnits="objectBoundingBox" primitiveUnits="userSpaceOnUse" color-interpolation-filters="sRGB"><feGaussianBlur stdDeviation="0 0" x="0%" y="0%" width="100%" height="100%" in="SourceGraphic" result="blur"/></filter><filter id="nnneon-filter2" x="-100%" y="-100%" width="400%" height="400%" filterUnits="objectBoundingBox" primitiveUnits="userSpaceOnUse" color-interpolation-filters="sRGB"><feGaussianBlur stdDeviation="0 17" x="0%" y="0%" width="100%" height="100%" in="SourceGraphic" result="blur"/></filter><linearGradient x1="50%" y1="0%" x2="50%" y2="100%" id="nnneon-grad"><stop stop-color="hsl(0, 0%, 100%)" offset="0%"/><stop stop-color="hsl(311, 100%, 50%)" offset="100%"/></linearGradient></defs><g stroke-width="44" stroke="url('#nnneon-grad')" fill="none" transform="rotate(344 400 400)"><path d="M378.608 114.997c8.764-17.71 34.02-17.71 42.784 0l271.602 548.836c7.85 15.862-3.692 34.452-21.39 34.452H128.396c-17.698 0-29.24-18.59-21.39-34.452l271.602-548.836Z" filter="url('#nnneon-filter')"/><path d="M390.608 114.997c8.764-17.71 34.02-17.71 42.784 0l271.602 548.836c7.85 15.862-3.692 34.452-21.39 34.452H140.396c-17.698 0-29.24-18.59-21.39-34.452l271.602-548.836Z" filter="url('#nnneon-filter2')" opacity=".25"/><path d="M366.608 114.997c8.764-17.71 34.02-17.71 42.784 0l271.602 548.836c7.85 15.862-3.692 34.452-21.39 34.452H116.396c-17.698 0-29.24-18.59-21.39-34.452l271.602-548.836Z" filter="url('#nnneon-filter2')" opacity=".25"/><path d="M378.608 114.997c8.764-17.71 34.02-17.71 42.784 0l271.602 548.836c7.85 15.862-3.692 34.452-21.39 34.452H128.396c-17.698 0-29.24-18.59-21.39-34.452l271.602-548.836Z"/></g></svg>