<svg xmlns="http://www.w3.org/2000/svg" version="1.1" xmlns:xlink="http://www.w3.org/1999/xlink" xmlns:svgjs="http://svgjs.dev/svgjs" viewBox="0 0 800 800"><defs><linearGradient x1="50%" y1="0%" x2="50%" y2="100%" id="nnneon-grad"><stop stop-color="hsl(0, 0%, 100%)" stop-opacity="1" offset="0%"></stop><stop stop-color="hsl(311, 100%, 50%)" stop-opacity="1" offset="100%"></stop></linearGradient><filter id="nnneon-filter" x="-100%" y="-100%" width="400%" height="400%" filterUnits="objectBoundingBox" primitiveUnits="userSpaceOnUse" color-interpolation-filters="sRGB">
	<feGaussianBlur stdDeviation="0 0" x="0%" y="0%" width="100%" height="100%" in="SourceGraphic" edgeMode="none" result="blur"></feGaussianBlur></filter><filter id="nnneon-filter2" x="-100%" y="-100%" width="400%" height="400%" filterUnits="objectBoundingBox" primitiveUnits="userSpaceOnUse" color-interpolation-filters="sRGB">
	<feGaussianBlur stdDeviation="0 17" x="0%" y="0%" width="100%" height="100%" in="SourceGraphic" edgeMode="none" result="blur"></feGaussianBlur></filter></defs><g stroke-width="44" stroke="url(#nnneon-grad)" fill="none" transform="rotate(344, 400, 400)"><path d="M378.6078330543123 114.99696536349919C387.37186950333626 97.28750173284624 412.6281422984266 97.28750173284624 421.39217874745054 114.99696536349919L692.9937734613882 663.832814382795C700.843696086889 679.6949566050754 689.3015173648085 698.2851199769293 671.6039873349848 698.2851199769293H128.39602446677793C110.6984944369542 698.2851199769293 99.15631571487376 679.6949566050754 107.00623834037475 663.832814382795L378.6078330543123 114.99696536349919Z " filter="url(#nnneon-filter)"></path><path d="M390.6078330543123 114.99696536349919C399.37186950333626 97.28750173284624 424.6281422984266 97.28750173284624 433.39217874745054 114.99696536349919L704.9937734613882 663.832814382795C712.843696086889 679.6949566050754 701.3015173648085 698.2851199769293 683.6039873349848 698.2851199769293H140.39602446677793C122.6984944369542 698.2851199769293 111.15631571487376 679.6949566050754 119.00623834037475 663.832814382795L390.6078330543123 114.99696536349919Z " filter="url(#nnneon-filter2)" opacity="0.25"></path><path d="M366.6078330543123 114.99696536349919C375.37186950333626 97.28750173284624 400.6281422984266 97.28750173284624 409.39217874745054 114.99696536349919L680.9937734613882 663.832814382795C688.843696086889 679.6949566050754 677.3015173648085 698.2851199769293 659.6039873349848 698.2851199769293H116.39602446677793C98.6984944369542 698.2851199769293 87.15631571487376 679.6949566050754 95.00623834037475 663.832814382795L366.6078330543123 114.99696536349919Z " filter="url(#nnneon-filter2)" opacity="0.25"></path><path d="M378.6078330543123 114.99696536349919C387.37186950333626 97.28750173284624 412.6281422984266 97.28750173284624 421.39217874745054 114.99696536349919L692.9937734613882 663.832814382795C700.843696086889 679.6949566050754 689.3015173648085 698.2851199769293 671.6039873349848 698.2851199769293H128.39602446677793C110.6984944369542 698.2851199769293 99.15631571487376 679.6949566050754 107.00623834037475 663.832814382795L378.6078330543123 114.99696536349919Z "></path></g></svg>