<svg xmlns="http://www.w3.org/2000/svg" version="1.1" xmlns:xlink="http://www.w3.org/1999/xlink" xmlns:svgjs="http://svgjs.dev/svgjs" viewBox="0 0 600 600"><path d="M404.6407165527344,239.8203582763672C374.999994913737,196.8562863667806,360.77843221028644,103.44311141967773,378.5928039550781,74.55089569091797C396.4071756998698,45.6586799621582,482.1856231689453,55.838321685791016,511.5269470214844,66.4670639038086C540.8682708740234,77.09580612182617,546.5569101969401,113.92215092976888,554.6407470703125,138.32334899902344C562.7245839436849,162.72454706827799,570.0599110921224,185.778444925944,560.0299682617188,212.87425231933594C550.0000254313151,239.97005971272787,515.419179280599,311.37723541259766,494.4610900878906,300.898193359375C473.5030008951823,290.41915130615234,471.2574818929036,162.5748494466146,434.28143310546875,150C397.3053843180339,137.4251505533854,297.15569559733075,227.99400583902994,272.60479736328125,225.4490966796875C248.05389912923178,222.90418752034506,263.9221547444661,105.68862915039062,286.9760437011719,134.7305450439453C310.0299326578776,163.7724609375,403.5927988688151,355.6886164347331,410.9281311035156,399.7005920410156C418.2634633382161,443.71256764729816,306.7365366617839,410.0299428304036,330.988037109375,398.8023986816406C355.2395375569661,387.5748545328776,544.1616872151693,358.8323338826497,556.4371337890625,332.3353271484375C568.7125803629557,305.8383204142253,434.28143819173175,282.7844301859538,404.6407165527344,239.8203582763672C374.999994913737,196.8562863667806,360.77843221028644,103.44311141967773,378.5928039550781,74.55089569091797" fill="url(&quot;#ssshape-pattern3&quot;)" stroke-width="0" stroke="hsl(340, 45%, 30%)" fill-opacity="0.66"></path><defs><pattern id="ssshape-pattern3" width="90" height="90" viewBox="0 0 40 40" patternUnits="userSpaceOnUse">
  <rect width="100%" height="100%" fill="hsl(205, 69%, 60%)"></rect>
  <path d="M11 20L20 0L20 40zM31 20L40 0L40 40zM0-20L9 0L0 20zM0 20L9 40L0 60zM20-20L29 0L20 20zM20 20L29 40L20 60z" fill="hsl(340, 45%, 25%)"></path>
</pattern><pattern id="ssshape-pattern12" width="70" height="70" viewBox="0 0 40 40" patternUnits="userSpaceOnUse" patternTransform="scale(undefined) rotate(undefined)">
  <rect width="100%" height="100%" fill="hsl(205, 69%, 60%)"></rect>
  <path d="M19.4 20a 0.6 0.6 0 0 0 1.2 0a 0.6 0.6 0 0 0-1.2 0M18.8 20a 1.2 1.2 0 0 0 2.4 0a 1.2 1.2 0 0 0-2.4 0M18.2 20a 1.8 1.8 0 0 0 3.6 0a 1.8 1.8 0 0 0-3.6 0M17.6 20a 2.4 2.4 0 0 0 4.8 0a 2.4 2.4 0 0 0-4.8 0M17 20a 3 3 0 0 0 6 0a 3 3 0 0 0-6 0M16.4 20a 3.6 3.6 0 0 0 7.2 0a 3.6 3.6 0 0 0-7.2 0M15.8 20a 4.2 4.2 0 0 0 8.4 0a 4.2 4.2 0 0 0-8.4 0M15.2 20a 4.8 4.8 0 0 0 9.6 0a 4.8 4.8 0 0 0-9.6 0M14.6 20a 5.4 5.4 0 0 0 10.8 0a 5.4 5.4 0 0 0-10.8 0M14 20a 6 6 0 0 0 12 0a 6 6 0 0 0-12 0M13.4 20a 6.6 6.6 0 0 0 13.2 0a 6.6 6.6 0 0 0-13.2 0M12.8 20a 7.2 7.2 0 0 0 14.4 0a 7.2 7.2 0 0 0-14.4 0M12.2 20a 7.8 7.8 0 0 0 15.6 0a 7.8 7.8 0 0 0-15.6 0M11.6 20a 8.4 8.4 0 0 0 16.8 0a 8.4 8.4 0 0 0-16.8 0M11 20a 9 9 0 0 0 18 0a 9 9 0 0 0-18 0M10.4 20a 9.6 9.6 0 0 0 19.2 0a 9.6 9.6 0 0 0-19.2 0M9.8 20a 10.2 10.2 0 0 0 20.4 0a 10.2 10.2 0 0 0-20.4 0M9.2 20a 10.8 10.8 0 0 0 21.6 0a 10.8 10.8 0 0 0-21.6 0M8.6 20a 11.4 11.4 0 0 0 22.8 0a 11.4 11.4 0 0 0-22.8 0M8 20a 12 12 0 0 0 24 0a 12 12 0 0 0-24 0" fill="hsl(340, 45%, 25%)"></path>
</pattern></defs><path d="M404.6407165527344,239.8203582763672C374.999994913737,196.8562863667806,360.77843221028644,103.44311141967773,378.5928039550781,74.55089569091797C396.4071756998698,45.6586799621582,482.1856231689453,55.838321685791016,511.5269470214844,66.4670639038086C540.8682708740234,77.09580612182617,546.5569101969401,113.92215092976888,554.6407470703125,138.32334899902344C562.7245839436849,162.72454706827799,570.0599110921224,185.778444925944,560.0299682617188,212.87425231933594C550.0000254313151,239.97005971272787,515.419179280599,311.37723541259766,494.4610900878906,300.898193359375C473.5030008951823,290.41915130615234,471.2574818929036,162.5748494466146,434.28143310546875,150C397.3053843180339,137.4251505533854,297.15569559733075,227.99400583902994,272.60479736328125,225.4490966796875C248.05389912923178,222.90418752034506,263.9221547444661,105.68862915039062,286.9760437011719,134.7305450439453C310.0299326578776,163.7724609375,403.5927988688151,355.6886164347331,410.9281311035156,399.7005920410156C418.2634633382161,443.71256764729816,306.7365366617839,410.0299428304036,330.988037109375,398.8023986816406C355.2395375569661,387.5748545328776,544.1616872151693,358.8323338826497,556.4371337890625,332.3353271484375C568.7125803629557,305.8383204142253,434.28143819173175,282.7844301859538,404.6407165527344,239.8203582763672C374.999994913737,196.8562863667806,360.77843221028644,103.44311141967773,378.5928039550781,74.55089569091797" fill-opacity="0.72" fill="url(&quot;#ssshape-pattern12&quot;)" opacity="1" stroke-opacity="1" stroke-width="0" stroke="hsl(340, 45%, 30%)" transform="matrix(1,0,0,1,75,75)"></path></svg>