<svg xmlns="http://www.w3.org/2000/svg" version="1.1" xmlns:xlink="http://www.w3.org/1999/xlink" xmlns:svgjs="http://svgjs.dev/svgjs" viewBox="0 0 600 600"><path d="M93.21928012910178 95.10339031079022C78.09951898001324 83.8758461620272 136.63245507620462 184.17524140535403 129.14742649140646 197.49859294750897C121.66239790660828 210.8219444896639 26.602519875195526 185.67224051017172 48.30910862031271 175.0434995637199C70.0156973654299 164.4147586172681 227.0516318136721 102.28902110913006 259.3869589621096 133.72614726879803C291.7222861105471 165.163273428466 264.32706058564474 328.03751557527653 242.3210715109377 363.6662565217283C220.31508243623068 399.2949974681802 148.00970574759134 350.7920042023925 127.3510245138674 347.4985929475097C106.69234328014343 344.20518169262687 106.54263675751974 374.4447116201984 118.36898410859396 343.90578899243155C130.19533145966818 313.36686636466453 191.7222810242841 196.7500883088371 198.3091086203127 164.2650571809074C204.89593621634134 131.78002605297772 176.60252496145853 137.0195534374178 157.88994968476584 148.99560222485272C139.17737440807315 160.97165101228762 61.18336093964865 214.56446513989178 86.03365696015646 236.12134990551678C110.88395298066428 257.6782346711418 285.13543816946634 234.62433808504153 306.9917258078127 278.3369108186028C328.8480134461591 322.0494835521646 260.1354534282554 480.2830116893716 217.1713827902346 498.39678630688456C174.20731215221377 516.5105609243979 48.75820021373718 425.9417132681476 49.20730197968771 387.01955852368144C49.656403745638244 348.0974037792155 212.53066369436868 313.51655254223607 219.8659933859377 264.8638578400873C227.20132307750674 216.21116313793866 108.33904127819031 106.33093445955323 93.21928012910178 95.10339031079022C78.09951898001324 83.8758461620272 136.63245507620462 184.17524140535403 129.14742649140646 197.49859294750897 " fill="url(&quot;#ssshape-pattern10&quot;)" transform="matrix(0.7660444431189781,0.6427876096865395,-0.6427876096865395,0.7660444431189781,270.3344412235745,-128.62723035905384)" fill-opacity="0.7"></path><path d="M120.51930437974102 -27.468356760556958C105.39954323065248 -38.695900909319974 163.93247932684386 61.603494334006854 156.4474507420457 74.92684587616179C148.96242215724752 88.25019741831673 53.902544125834766 63.10049343882454 75.60913287095195 52.47175249237273C97.31572161606914 41.843011545920916 254.35165606431133 -20.282725962217114 286.6869832127488 11.154400197450855C319.0223103611863 42.59152635711882 291.627084836284 205.46576850392873 269.62109576157695 241.09450945038049C247.61510668686992 276.7232503968325 175.30972999823058 228.22025713104455 154.65104876450664 224.92684587616174C133.99236753078267 221.63343462127892 133.84266100815898 251.8729645488507 145.6690083592332 221.3340419210836C157.49535571030742 190.79511929331676 219.02230527492333 74.17834123748992 225.60913287095195 41.69331010956023C232.19596046698058 9.208278981630542 203.90254921209777 14.447806366070637 185.18997393540508 26.423855153505542C166.4773986587124 38.39990394094045 88.48338519028789 91.9927180685446 113.3336812107957 113.5496028341696C138.18397723130352 135.1064875997946 312.4354624201056 112.05259101369435 334.29175005845195 155.76516374725554C356.1480376967983 199.47773648081676 287.43547767889464 357.7112646180239 244.47140704087383 375.82503923553685C201.507336402853 393.9388138530499 76.05822446437642 303.3699661967999 76.50732623032695 264.4478114523337C76.95642799627748 225.52565670786754 239.83068794500792 190.94480547088835 247.16601763657695 142.29211076873992C254.50134732814598 93.63941606659148 135.63906552882955 -16.24081261179394 120.51930437974102 -27.468356760556958C105.39954323065248 -38.695900909319974 163.93247932684386 61.603494334006854 156.4474507420457 74.92684587616179 " fill-opacity="0.68" fill="url(&quot;#ssshape-pattern1&quot;)" opacity="1" stroke-opacity="1" stroke-width="0" stroke="hsl(340, 45%, 30%)" transform="matrix(0.7660444431189779,0.6427876096865395,-0.6427876096865395,0.7660444431189779,343.5758505253326,-44.34837598893648)"></path><defs><pattern id="ssshape-pattern1" width="70" height="70" viewBox="0 0 40 40" patternUnits="userSpaceOnUse">
  <rect width="100%" height="100%" fill="hsl(205, 69%, 60%)"></rect>
  <circle cx="20" cy="20" r="10" fill="hsl(340, 45%, 25%)" fill-opacity="0.5"></circle>
  <circle cx="26" cy="20" r="9" fill="hsl(340, 45%, 25%)"></circle>
  <circle cx="-14" cy="20" r="9" fill="hsl(340, 45%, 25%)"></circle>
</pattern><pattern id="ssshape-pattern10" width="41" height="41" viewBox="0 0 40 40" patternUnits="userSpaceOnUse">
  <rect width="100%" height="100%" fill="hsl(205, 69%, 60%)"></rect>
  <path d="M-10 30h60v9h-60zM-10-10h60v9h-60" fill="hsl(340, 45%, 25%)"></path>
  <path d="M-10 18h60v14h-60zM-10-22h60v14h-60z" fill="hsl(340, 45%, 25%)" fill-opacity="0.5"></path>
</pattern></defs></svg>