<svg width="216" height="38" viewBox="0 0 216 38" fill="none" xmlns="http://www.w3.org/2000/svg">
<path d="M0 1.24878H6.2054V36.8249H0V1.24878Z" fill="white"/>
<path d="M18.9539 11.059V36.8218H13.369V1.24573H21.1534L27.5247 22.5385V1.24573H33.0543V36.8218H26.6768L18.9539 11.059Z" fill="white"/>
<path d="M48.563 0.844727C54.5964 0.844727 57.6991 4.09737 57.6991 9.79101V10.9101H51.8377V9.43438C51.8377 6.89499 50.7072 5.92967 48.735 5.92967C46.7628 5.92967 45.6323 6.89499 45.6323 9.43438C45.6323 16.7513 57.7605 18.1224 57.7605 28.2861C57.7605 33.9798 54.6025 37.2324 48.5077 37.2324C42.4129 37.2324 39.2549 33.9798 39.2549 28.2861V26.1034H45.1224V28.6428C45.1224 31.1821 46.3634 32.0983 48.3357 32.0983C50.3079 32.0983 51.549 31.1821 51.549 28.6428C51.549 21.3259 39.4208 19.9547 39.4208 9.79101C39.4269 4.09737 42.5296 0.844727 48.563 0.844727Z" fill="white"/>
<path d="M64.0215 1.24878H70.2269V36.8249H64.0215V1.24878Z" fill="white"/>
<path d="M86.7448 17.0032H95.4324V28.2859C95.4324 33.9796 92.2744 37.2322 86.1796 37.2322C80.0909 37.2322 76.9268 33.9796 76.9268 28.2859V9.78465C76.9268 4.091 80.0848 0.838379 86.1796 0.838379C92.2744 0.838379 95.4324 4.091 95.4324 9.78465V13.2402H89.571V9.42804C89.571 6.88865 88.33 5.9233 86.3516 5.9233C84.3794 5.9233 83.1383 6.88865 83.1383 9.42804V28.6364C83.1383 31.1758 84.3794 32.0919 86.3516 32.0919C88.3238 32.0919 89.571 31.1758 89.571 28.6364V22.0819H86.751V17.0032H86.7448Z" fill="white"/>
<path d="M108.354 36.8249H102.148V1.24878H108.354V16.4974H115.407V1.24878H121.723V36.8249H115.407V21.5762H108.354V36.8249Z" fill="white"/>
<path d="M127.132 1.24878H146.307V6.33372H139.819V36.8249H133.614V6.33372H127.126V1.24878H127.132Z" fill="white"/>
<path d="M150.362 0.953369H154.767C157.552 0.953369 158.917 2.34359 158.917 4.89828V12.9723C158.917 15.527 157.552 16.9172 154.767 16.9172H150.362V0.953369ZM153.147 3.23477V14.6358H154.714C155.598 14.6358 156.133 14.2259 156.133 13.0852V4.7854C156.133 3.6447 155.598 3.23477 154.714 3.23477H153.147Z" fill="white"/>
<path d="M161.898 0.953369H164.683V16.9113H161.898V0.953369Z" fill="white"/>
<path d="M172.096 8.02147H175.991V13.0833C175.991 15.638 174.572 17.0936 171.841 17.0936C169.11 17.0936 167.691 15.6321 167.691 13.0833V4.78354C167.691 2.22884 169.11 0.767334 171.841 0.767334C174.572 0.767334 175.991 2.22884 175.991 4.78354V6.33419H173.361V4.62313C173.361 3.48243 172.803 3.04873 171.918 3.04873C171.034 3.04873 170.476 3.48243 170.476 4.62313V13.2378C170.476 14.3785 171.034 14.7884 171.918 14.7884C172.803 14.7884 173.361 14.3785 173.361 13.2378V10.2969H172.096V8.02147Z" fill="white"/>
<path d="M179.007 0.953247H181.791V16.9112H179.007V0.953247Z" fill="white"/>
<path d="M184.213 0.953369H192.815V3.23477H189.906V16.9113H187.122V3.23477H184.213V0.953369Z" fill="white"/>
<path d="M203.299 16.9113H200.491L200.01 14.018H196.596L196.116 16.9113H193.557L196.389 0.953369H200.461L203.299 16.9113ZM196.941 11.8554H199.624L198.282 3.78134L196.941 11.8554Z" fill="white"/>
<path d="M205.798 0.953369H208.582V14.6299H213.159V16.9113H205.798V0.953369Z" fill="white"/>
<path d="M159.369 36.9742H156.561L156.08 34.0808H152.666L152.186 36.9742H149.633L152.465 21.0162H156.537L159.369 36.9742ZM153.023 31.9182H155.706L154.364 23.8442L153.023 31.9182Z" fill="white"/>
<path d="M166.024 28.0842H169.919V33.1461C169.919 35.7008 168.5 37.1564 165.769 37.1564C163.038 37.1564 161.619 35.6948 161.619 33.1461V24.8463C161.619 22.2916 163.038 20.8301 165.769 20.8301C168.5 20.8301 169.919 22.2916 169.919 24.8463V26.3969H167.289V24.6859C167.289 23.5452 166.731 23.1115 165.846 23.1115C164.962 23.1115 164.404 23.5452 164.404 24.6859V33.3005C164.404 34.4412 164.962 34.8512 165.846 34.8512C166.731 34.8512 167.289 34.4412 167.289 33.3005V30.3597H166.024V28.0842Z" fill="white"/>
<path d="M175.717 27.7386H179.54V30.02H175.717V34.6957H180.526V36.9771H172.933V21.0192H180.526V23.3006H175.717V27.7386Z" fill="white"/>
<path d="M185.941 25.4186V36.9742H183.436V21.0162H186.926L189.788 30.5696V21.0162H192.269V36.9742H189.408L185.941 25.4186Z" fill="white"/>
<path d="M203.549 31.0251V33.1461C203.549 35.7008 202.13 37.1564 199.399 37.1564C196.669 37.1564 195.25 35.6948 195.25 33.1461V24.8463C195.25 22.2916 196.669 20.8301 199.399 20.8301C202.13 20.8301 203.549 22.2916 203.549 24.8463V26.3969H200.919V24.6859C200.919 23.5452 200.367 23.1115 199.477 23.1115C198.586 23.1115 198.034 23.5452 198.034 24.6859V33.3005C198.034 34.4412 198.592 34.8512 199.477 34.8512C200.361 34.8512 200.919 34.4412 200.919 33.3005V31.0191H203.549V31.0251Z" fill="white"/>
<path d="M208.79 31.6865L205.275 21.0162H208.184L210.31 28.2882L212.435 21.0162H215.095L211.574 31.6865V36.9742H208.79V31.6865Z" fill="white"/>
</svg>
